<?xml version="1.0" encoding="UTF-8"?>

<svg xmlns="http://www.w3.org/2000/svg" viewBox="0 0 81.34 116.01">
  <style>
    <!-- Set different favicon colour according to theme -->
    path { fill: red; }
    @media (prefers-color-scheme: dark) {path {fill: #fff;}}
    @media (prefers-color-scheme: light) {path {fill: #000;}}
  </style>
  <path d="m62.9,103.1c1.31-1.44,3.7-6.45,4.09-10.34,1.13-10.85-5.12-26.41-13.99-30.83-1.65-.58-3.9-.76-6.35-.66-2.6.1-5.07.66-7.65.66,11.36-6.84,32.28-4.59,37.79,4.22,24.59,39.33-57.79,68.99-65.78,35-6.24-26.57,13.82-28.2,15.39-51.82-5-6.18-9.68-12.7-16.8-16.8,6.66-5,17.57-5.9,25.74-4.88,18.34,24.82-21.15,52.92-8.94,74.9,3.62,6.47,14.06,9.84,22.4,8.39,8.52-2.39,11.99-5.07,14.12-7.84Z"/>
  <path d="m27.31,15.02c-1.1,5.87-7.68,7.94-15.31,6.54S-.94,14.25.14,8.38,8.28-1.1,15.91.3c7.63,1.41,13.13,5.46,11.4,14.72Z"/>
</svg>