<?xml version="1.0" encoding="UTF-8"?><svg xmlns="http://www.w3.org/2000/svg" xmlns:xlink="http://www.w3.org/1999/xlink" viewBox="0 0 2428 1876"><defs><style>.cls-1{clip-path:url(#clippath-45);}.cls-2{fill:url(#radial-gradient-7);}.cls-3{fill:url(#radial-gradient-34);}.cls-4{fill:url(#radial-gradient-10);}.cls-5{clip-path:url(#clippath-20);}.cls-6{clip-path:url(#clippath-11);}.cls-7{clip-path:url(#clippath-16);}.cls-8{fill:#fff;}.cls-9{clip-path:url(#clippath-59);}.cls-10{fill:url(#radial-gradient-31);}.cls-11{clip-path:url(#clippath-33);}.cls-12{stroke:#000;stroke-miterlimit:10;}.cls-12,.cls-13{fill:none;}.cls-14{fill:url(#radial-gradient-28);}.cls-15{clip-path:url(#clippath-32);}.cls-16{fill:url(#radial-gradient-16);}.cls-17{fill:url(#radial-gradient-20);}.cls-18{fill:url(#radial-gradient-21);}.cls-19{fill:url(#radial-gradient-8);}.cls-20{mask:url(#mask-2);}.cls-21{fill:url(#radial-gradient-5);}.cls-22{clip-path:url(#clippath-2);}.cls-23{clip-path:url(#clippath-13);}.cls-24{fill:url(#radial-gradient-4);}.cls-25{clip-path:url(#clippath-46);}.cls-26{clip-path:url(#clippath-25);}.cls-27{clip-path:url(#clippath-15);}.cls-28{clip-path:url(#clippath-6);}.cls-29{mask:url(#mask-3);}.cls-30{clip-path:url(#clippath-26);}.cls-31{fill:url(#radial-gradient-32);}.cls-32{fill:url(#radial-gradient-25);}.cls-33{fill:url(#radial-gradient-26);}.cls-34{fill:url(#radial-gradient-22);}.cls-35{clip-path:url(#clippath-7);}.cls-36{fill:url(#radial-gradient-6);}.cls-37{clip-path:url(#clippath-21);}.cls-38{mask:url(#mask-9);}.cls-39{fill:url(#radial-gradient-19);}.cls-40{clip-path:url(#clippath-34);}.cls-41{clip-path:url(#clippath-57);}.cls-42{fill:url(#radial-gradient-12);}.cls-43{clip-path:url(#clippath-1);}.cls-44{clip-path:url(#clippath-4);}.cls-45{clip-path:url(#clippath-36);}.cls-46{clip-path:url(#clippath-27);}.cls-47{fill:url(#radial-gradient-35);}.cls-48{fill:url(#radial-gradient);}.cls-49{clip-path:url(#clippath-60);}.cls-50{mask:url(#mask-5);}.cls-51{clip-path:url(#clippath-44);}.cls-52{fill:url(#radial-gradient-27);}.cls-53{fill:url(#radial-gradient-13);}.cls-54{clip-path:url(#clippath-12);}.cls-55{clip-path:url(#clippath-24);}.cls-56{clip-path:url(#clippath-30);}.cls-57{mask:url(#mask-8);}.cls-58{clip-path:url(#clippath-22);}.cls-59{fill:url(#radial-gradient-30);}.cls-60{mask:url(#mask-4);}.cls-61{fill:url(#radial-gradient-24);}.cls-62{clip-path:url(#clippath-9);}.cls-63{fill:url(#radial-gradient-15);}.cls-64{clip-path:url(#clippath);}.cls-65{fill:url(#radial-gradient-2);}.cls-66{fill:url(#radial-gradient-38);}.cls-67{clip-path:url(#clippath-19);}.cls-68{fill:url(#radial-gradient-3);}.cls-69{clip-path:url(#clippath-31);}.cls-70{mask:url(#mask-6);}.cls-71{clip-path:url(#clippath-54);}.cls-72{clip-path:url(#clippath-3);}.cls-73{clip-path:url(#clippath-43);}.cls-74{clip-path:url(#clippath-8);}.cls-75{fill:url(#radial-gradient-17);}.cls-76{clip-path:url(#clippath-55);}.cls-77{mask:url(#mask-1);}.cls-78{mask:url(#mask);}.cls-79{fill:url(#radial-gradient-33);}.cls-80{clip-path:url(#clippath-29);}.cls-81{fill:url(#radial-gradient-14);}.cls-82{clip-path:url(#clippath-18);}.cls-83{clip-path:url(#clippath-14);}.cls-84{clip-path:url(#clippath-17);}.cls-85{clip-path:url(#clippath-5);}.cls-86{fill:url(#radial-gradient-37);}.cls-87{clip-path:url(#clippath-58);}.cls-88{mask:url(#mask-7);}.cls-89{fill:url(#radial-gradient-29);}.cls-90{clip-path:url(#clippath-42);}.cls-91{clip-path:url(#clippath-10);}.cls-92{clip-path:url(#clippath-23);}.cls-93{fill:url(#radial-gradient-23);}.cls-94{clip-path:url(#clippath-56);}.cls-95{fill:url(#radial-gradient-36);}.cls-96{fill:url(#radial-gradient-11);}.cls-97{fill:url(#radial-gradient-18);}.cls-98{fill:url(#radial-gradient-9);}.cls-99{clip-path:url(#clippath-28);}.cls-100{clip-path:url(#clippath-35);}</style><clipPath id="clippath"><rect class="cls-13" x="1422" y="1054" width="590" height="590"/></clipPath><clipPath id="clippath-1"><rect class="cls-13" x="1422" y="1054" width="590" height="590"/></clipPath><clipPath id="clippath-2"><path class="cls-13" d="M1520.33333,1349c0,108.61625,88.05042,196.66667,196.66667,196.66667s196.66667-88.05042,196.66667-196.66667-88.05083-196.66667-196.66667-196.66667-196.66667,88.05083-196.66667,196.66667"/></clipPath><radialGradient id="radial-gradient" cx="-283.494" cy="-66.322" fx="-283.494" fy="-66.322" r=".39333" gradientTransform="translate(143464 -31812) scale(500 -500)" gradientUnits="userSpaceOnUse"><stop offset="0" stop-color="#7ead37"/><stop offset=".87911" stop-color="#7ead37"/><stop offset="1" stop-color="#fff"/></radialGradient><clipPath id="clippath-3"><rect class="cls-13" x="1422" y="1054" width="590" height="590"/></clipPath><clipPath id="clippath-4"><path class="cls-13" d="M1520.33333,1349c0,108.61625,88.05042,196.66667,196.66667,196.66667s196.66667-88.05042,196.66667-196.66667-88.05083-196.66667-196.66667-196.66667-196.66667,88.05083-196.66667,196.66667"/></clipPath><radialGradient id="radial-gradient-2" cx="-283.494" cy="-66.322" fx="-283.494" fy="-66.322" r=".39333" gradientTransform="translate(143464 -31812) scale(500 -500)" gradientUnits="userSpaceOnUse"><stop offset="0" stop-color="#fff"/><stop offset=".77889" stop-color="#fff"/><stop offset=".84185" stop-color="#fff"/><stop offset=".84185" stop-color="#000"/><stop offset="1" stop-color="#000"/></radialGradient><mask id="mask" x="1520.33333" y="1152.33333" width="393.33333" height="393.33333" maskUnits="userSpaceOnUse"><rect class="cls-65" x="1520.33333" y="1152.33333" width="393.33333" height="393.33333"/></mask><radialGradient id="radial-gradient-3" cx="-283.494" cy="-66.322" fx="-283.494" fy="-66.322" r=".39333" gradientTransform="translate(143464 -31812) scale(500 -500)" gradientUnits="userSpaceOnUse"><stop offset="0" stop-color="#78d68b"/><stop offset=".77889" stop-color="#78d68b"/><stop offset=".84185" stop-color="#fff"/><stop offset=".84185" stop-color="#fff"/><stop offset="1" stop-color="#fff"/></radialGradient><clipPath id="clippath-5"><path class="cls-13" d="M1713.87496,1186.88492c-15.80531,25.54698-48.76467,34.3785-75.22618,20.15675l-20.37545-28.74834,14.9628,31.8734c-.9145,30.02705-25.04236,54.15528-55.06982,55.0694l-31.87298-14.9628,28.74795,20.37545c14.22175,26.46151,5.39063,59.42087-20.15676,75.22618l-34.55119,3.12504,34.55119,3.12504c25.54739,15.80531,34.37851,48.76467,20.15676,75.22618l-28.74795,19.58879,31.87298-14.17613c30.02746,.9145,54.15532,25.04236,55.06982,55.06982l-14.9628,31.08631,20.37545-27.96128c26.46151-14.22175,59.42087-5.39063,75.22618,20.15676l2.7317,34.15786,3.51837-34.15786c15.80531-25.54739,48.76467-34.37851,75.22618-20.15676l19.98212,27.96128-14.56947-31.08631c.91412-30.02746,25.04235-54.15532,55.0694-55.06982l31.08673,14.17613-27.96167-19.58879c-14.22175-26.46151-5.39023-59.42087,20.15675-75.22618l34.15825-3.51837-34.15825-2.7317c-25.54698-15.80531-34.3785-48.76467-20.15675-75.22618l27.96167-20.37545-31.08673,14.9628c-30.02705-.91412-54.15528-25.04235-55.0694-55.0694l14.56947-31.8734-19.98212,28.74834c-26.46151,14.22175-59.42087,5.39023-75.22618-20.15675l-3.12504-34.55159-3.12504,34.55159Z"/></clipPath><radialGradient id="radial-gradient-4" cx="-283.49088" cy="-66.32693" fx="-283.49088" fy="-66.32693" r=".39333" gradientTransform="translate(143320.5 -31781.5) scale(499.5 -499.5)" gradientUnits="userSpaceOnUse"><stop offset="0" stop-color="#1f1042"/><stop offset=".50404" stop-color="#1f1042"/><stop offset=".87008" stop-color="#fff"/><stop offset="1" stop-color="#fff"/></radialGradient><clipPath id="clippath-6"><path class="cls-13" d="M1715.70947,1234.881l-3.65091,73.41726c-.98177,7.26053-9.92262,10.16571-14.98481,4.86908l-45.57279-56.67423c-1.04822-1.09701-2.80761,.18094-2.08781,1.51708l39.6653,60.9659c3.47352,6.45065-2.05242,14.05694-9.26143,12.74675l-70.86332-19.03261c-1.49309-.27102-2.16491,1.79713-.79729,2.45519l68.60678,25.97652c6.60209,3.17735,6.60209,12.57879,0,15.75614l-67.8205,25.97693c-1.36723,.65804-.69503,2.7258,.79767,2.4544l70.07665-19.03223c7.20901-1.31019,12.73496,6.29571,9.26143,12.74675l-39.6653,60.9659c-.71981,1.33614,1.03958,2.61409,2.08781,1.51708l45.57279-56.67383c5.0622-5.29704,14.00304-2.39186,14.98481,4.86906l3.65091,72.63019c.20336,1.50371,2.37769,1.50371,2.58106,0l3.65091-72.63019c.98136-7.26092,9.92302-10.1661,14.98481-4.86906l45.57279,56.67383c1.04822,1.09701,2.80721-.18094,2.08781-1.51708l-39.6653-60.9659c-3.47352-6.45104,2.05242-14.05694,9.26103-12.74675l70.07705,19.03223c1.4931,.2714,2.16492-1.79636,.79771-2.4544l-67.82052-25.97693c-6.60209-3.17735-6.60209-12.57879,0-15.75614l67.82052-25.97652c1.36721-.65806,.69539-2.72621-.79771-2.45519l-70.07705,19.03261c-7.20861,1.31019-12.73455-6.29609-9.26103-12.74675l39.6653-60.9659c.7194-1.33614-1.03958-2.61409-2.08781-1.51708l-45.57279,56.67423c-5.06179,5.29663-14.00345,2.39145-14.98481-4.86908l-3.65091-73.41726c-.10189-.75162-.69621-1.12766-1.29053-1.12766s-1.18905,.37605-1.29053,1.12766"/></clipPath><radialGradient id="radial-gradient-5" cx="-281.59976" cy="-69.58803" fx="-281.59976" fy="-69.58803" r=".39367" gradientTransform="translate(81943.04541 -18476.50635) scale(284.89526 -284.89526)" gradientUnits="userSpaceOnUse"><stop offset="0" stop-color="#996e99"/><stop offset=".29351" stop-color="#996e99"/><stop offset=".90985" stop-color="#7dad4c"/><stop offset="1" stop-color="#7dad4c"/></radialGradient><clipPath id="clippath-7"><rect class="cls-13" x="1838" y="1286" width="590" height="590"/></clipPath><clipPath id="clippath-8"><rect class="cls-13" x="1838" y="1286" width="590" height="590"/></clipPath><clipPath id="clippath-9"><path class="cls-13" d="M1936.33333,1581c0,108.61625,88.05042,196.66667,196.66667,196.66667s196.66667-88.05042,196.66667-196.66667-88.05083-196.66667-196.66667-196.66667-196.66667,88.05083-196.66667,196.66667"/></clipPath><radialGradient id="radial-gradient-6" cx="-282.662" cy="-66.786" fx="-282.662" fy="-66.786" r=".39333" gradientTransform="translate(143464 -31812) scale(500 -500)" gradientUnits="userSpaceOnUse"><stop offset="0" stop-color="#a38c2e"/><stop offset=".84236" stop-color="#a38c2e"/><stop offset="1" stop-color="#fff"/></radialGradient><clipPath id="clippath-10"><rect class="cls-13" x="1838" y="1286" width="590" height="590"/></clipPath><clipPath id="clippath-11"><path class="cls-13" d="M1936.33333,1581c0,108.61625,88.05042,196.66667,196.66667,196.66667s196.66667-88.05042,196.66667-196.66667-88.05083-196.66667-196.66667-196.66667-196.66667,88.05083-196.66667,196.66667"/></clipPath><radialGradient id="radial-gradient-7" cx="-282.662" cy="-66.786" fx="-282.662" fy="-66.786" r=".39333" gradientTransform="translate(143464 -31812) scale(500 -500)" gradientUnits="userSpaceOnUse"><stop offset="0" stop-color="#fff"/><stop offset=".71999" stop-color="#fff"/><stop offset=".78597" stop-color="#fff"/><stop offset=".79" stop-color="#000"/><stop offset="1" stop-color="#000"/></radialGradient><mask id="mask-1" x="1936.33333" y="1384.33333" width="393.33333" height="393.33333" maskUnits="userSpaceOnUse"><rect class="cls-2" x="1936.33333" y="1384.33333" width="393.33333" height="393.33333"/></mask><radialGradient id="radial-gradient-8" cx="-282.662" cy="-66.786" fx="-282.662" fy="-66.786" r=".39333" gradientTransform="translate(143464 -31812) scale(500 -500)" gradientUnits="userSpaceOnUse"><stop offset="0" stop-color="#678f50"/><stop offset=".71999" stop-color="#678f50"/><stop offset=".78597" stop-color="#fff"/><stop offset=".79" stop-color="#fff"/><stop offset="1" stop-color="#fff"/></radialGradient><clipPath id="clippath-12"><path class="cls-13" d="M2117.53216,1432.10605c-12.24841,20.38803-37.64318,28.63934-59.53651,19.34449l-40.63565-29.35721,15.60865,47.54061c2.07443,23.69363-13.62036,45.29549-36.79555,50.64443l-50.00644,.14829,40.44686,29.27304c15.60511,17.94939,15.60511,44.65121,0,62.60059l-40.44686,29.27304,50.00644,.14788c23.17519,5.34894,38.86998,26.95121,36.79555,50.64482l-15.60865,47.54063,40.63565-29.35722c21.89333-9.29447,47.28811-1.04312,59.53651,19.34453l15.46784,47.77269,15.46743-47.77269c12.24881-20.38765,37.64397-28.639,59.53651-19.34453l40.63606,29.35722-15.60864-47.54063c-2.07443-23.69362,13.62075-45.29588,36.79554-50.64482l50.00644-.14788-40.44688-29.27304c-15.60509-17.94939-15.60509-44.65121,0-62.60059l40.44688-29.27304-50.00644-.14829c-23.17479-5.34894-38.86997-26.9508-36.79554-50.64443l15.60864-47.54061-40.63606,29.35721c-21.89254,9.29485-47.2877,1.04354-59.53651-19.34449l-15.46743-47.77271-15.46784,47.77271Z"/></clipPath><radialGradient id="radial-gradient-9" cx="-282.57754" cy="-66.90711" fx="-282.57754" fy="-66.90711" r=".39333" gradientTransform="translate(139934.82214 -31046.93347) scale(487.66022 -487.66022)" gradientUnits="userSpaceOnUse"><stop offset="0" stop-color="#40255c"/><stop offset=".42529" stop-color="#40255c"/><stop offset=".84947" stop-color="#fff"/><stop offset="1" stop-color="#fff"/></radialGradient><clipPath id="clippath-13"><path class="cls-13" d="M2131.19459,1468.91258l-3.2733,70.43341c-.82049,6.3189-8.75916,8.6498-12.86594,3.77798l-41.158-57.5836c-1.37431-1.63037-3.94947,.02478-3.03731,1.9525l35.65054,61.12243c2.7258,5.75958-2.69236,12.01239-8.78117,10.13424l-66.36909-25.9781c-2.03786-.62856-3.3099,2.15625-1.50017,3.28473l63.64998,31.93236c5.40677,3.37166,4.22913,11.56125-1.90845,13.27303l-70.10419,13.90591c-2.05439,.57269-1.61857,3.60333,.5133,3.57423l71.03639-7.42693c6.37121-.08652,9.80856,7.43989,5.57038,12.19806l-51.51486,49.65596c-1.41837,1.59261,.58686,3.90621,2.36432,2.72897l55.80181-44.70904c5.31314-3.51758,12.27357,.95582,11.28118,7.24954l-16.93929,69.54841c-.33236,2.1063,2.60504,2.96888,3.46447,1.01716l23.22004-67.70368c2.56769-5.83156,10.84185-5.83156,13.40954,0l23.22004,67.70368c.85943,1.95172,3.79683,1.08914,3.46486-1.01716l-16.93929-69.54841c-.99318-6.29372,5.96765-10.76712,11.2808-7.24954l55.80141,44.70904c1.77828,1.17724,3.7831-1.13635,2.36473-2.72897l-51.51486-49.65596c-4.23818-4.75817-.80124-12.28458,5.57077-12.19806l71.03563,7.42693c2.13222,.0291,2.56805-3.00154,.51409-3.57423l-70.10461-13.90591c-6.13796-1.71178-7.31522-9.90137-1.90845-13.27303l63.25625-31.93236c1.80973-1.12848,.53807-3.91329-1.49978-3.28473l-65.97576,25.9781c-6.08882,1.87815-11.50697-4.37466-8.78117-10.13424l35.65054-61.12243c.91215-1.92773-1.663-3.58288-3.0377-1.9525l-41.15761,57.5836c-4.1064,4.87182-12.04545,2.54092-12.86633-3.77798l-3.27292-70.43341c-.13768-1.05728-.97155-1.58591-1.80541-1.58591-.83425,0-1.66814,.52864-1.80541,1.58591"/></clipPath><radialGradient id="radial-gradient-10" cx="-280.14452" cy="-70.40793" fx="-280.14452" fy="-70.40793" r=".39333" gradientTransform="translate(81983.2168 -18489.81616) scale(285.03223 -285.03223)" gradientUnits="userSpaceOnUse"><stop offset="0" stop-color="#4c3e52"/><stop offset=".20776" stop-color="#4c3e52"/><stop offset=".88825" stop-color="#7ae036"/><stop offset="1" stop-color="#7ae036"/></radialGradient><clipPath id="clippath-14"><rect class="cls-13" x="919" y="0" width="590" height="590"/></clipPath><clipPath id="clippath-15"><rect class="cls-13" x="919" y="0" width="590" height="590"/></clipPath><clipPath id="clippath-16"><path class="cls-13" d="M1017.59293,295.33905c0,108.61546,88.05042,196.66627,196.66627,196.66627s196.66707-88.05081,196.66707-196.66627-88.05083-196.66707-196.66707-196.66707-196.66627,88.05083-196.66627,196.66707"/></clipPath><radialGradient id="radial-gradient-11" cx="-284.5008" cy="-64.21295" fx="-284.5008" fy="-64.21295" r=".39333" gradientTransform="translate(143464.65955 -31811.13873) scale(500 -500)" gradientUnits="userSpaceOnUse"><stop offset="0" stop-color="#45ad45"/><stop offset=".87151" stop-color="#45ad45"/><stop offset="1" stop-color="#fff"/></radialGradient><clipPath id="clippath-17"><rect class="cls-13" x="919" y="0" width="590" height="590"/></clipPath><clipPath id="clippath-18"><path class="cls-13" d="M1017.59293,295.33905c0,108.61546,88.05042,196.66627,196.66627,196.66627s196.66707-88.05081,196.66707-196.66627-88.05083-196.66707-196.66707-196.66707-196.66627,88.05083-196.66627,196.66707"/></clipPath><radialGradient id="radial-gradient-12" cx="-284.5008" cy="-64.21295" fx="-284.5008" fy="-64.21295" r=".39333" gradientTransform="translate(143464.65955 -31811.13873) scale(500 -500)" gradientUnits="userSpaceOnUse"><stop offset="0" stop-color="#fff"/><stop offset=".7343" stop-color="#fff"/><stop offset=".82754" stop-color="#fff"/><stop offset=".83" stop-color="#000"/><stop offset="1" stop-color="#000"/></radialGradient><mask id="mask-2" x="1017.59292" y="98.67203" width="393.33331" height="393.33332" maskUnits="userSpaceOnUse"><rect class="cls-42" x="1017.59292" y="98.67203" width="393.33331" height="393.33332"/></mask><radialGradient id="radial-gradient-13" cx="-284.5008" cy="-64.21295" fx="-284.5008" fy="-64.21295" r=".39333" gradientTransform="translate(143464.65955 -31811.13873) scale(500 -500)" gradientUnits="userSpaceOnUse"><stop offset="0" stop-color="#46c24e"/><stop offset=".7343" stop-color="#46c24e"/><stop offset=".82754" stop-color="#fff"/><stop offset=".83" stop-color="#fff"/><stop offset="1" stop-color="#fff"/></radialGradient><clipPath id="clippath-19"><path class="cls-13" d="M1205.58227,138.63387c-14.24575,23.18703-43.72136,31.84151-68.24175,20.03758l-29.54052-28.87144,14.71617,38.3984c.55144,27.20804-19.56558,50.42452-46.57578,53.75095l-40.51373-8.36935,33.19379,24.39886c15.17323,22.59071,10.80133,52.99773-10.12165,70.39879l-39.19881,14.54901,41.70631,2.89337c24.97824,10.80133,37.73955,38.74489,29.54563,64.69586l-25.23193,33.49744,36.77155-20.18036c26.85287-4.41752,52.69565,12.19097,59.8323,38.45187l-3.38386,41.51515,20.29167-36.55011c20.20159-18.23415,50.92173-18.23415,71.12292,0l19.50541,36.55011-2.59719-41.51515c7.13666-26.26091,32.97943-42.8694,59.83228-38.45187l35.98491,20.18036-24.44529-33.49744c-8.19432-25.95096,4.56741-53.89453,29.54566-64.69586l40.91963-2.89337-38.41213-14.54901c-20.92339-17.40106-25.29491-47.80808-10.12166-70.39879l32.40712-24.39886-39.72743,8.36935c-27.00983-3.32643-47.12685-26.54292-46.57541-53.75095l13.92951-38.3984-28.75424,28.87144c-24.52,11.80394-53.99561,3.14945-68.24136-20.03758l-9.20439-40.30053-8.41773,40.30053Z"/></clipPath><radialGradient id="radial-gradient-14" cx="-284.47718" cy="-64.26" fx="-284.47718" fy="-64.26" r=".39333" gradientTransform="translate(141320.81543 -31357.39355) scale(492.50635 -492.50635)" gradientUnits="userSpaceOnUse"><stop offset="0" stop-color="#25255c"/><stop offset=".61155" stop-color="#25255c"/><stop offset=".92078" stop-color="#fff"/><stop offset="1" stop-color="#fff"/></radialGradient><clipPath id="clippath-20"><path class="cls-13" d="M1212.95766,182.18728l-3.76379,72.58378c-.95109,7.0092-9.582,9.81365-14.47152,4.7019l-45.312-56.81268c-1.16624-1.21932-3.12268,.20178-2.32303,1.6878l39.22242,61.23728c3.35042,6.22962-1.98398,13.57158-8.94401,12.30977l-70.02867-18.76004c-1.66026-.30091-2.40759,1.99852-.88736,2.73091l67.70251,25.91909c6.37277,3.07076,6.37277,12.14575,0,15.2161l-67.70251,25.9195c-1.52023,.73239-.7729,3.0322,.88736,2.73129l70.02867-18.7608c6.96004-1.26143,12.29443,6.08053,8.94401,12.31015l-39.61575,60.84353c-.79965,1.48681,1.15679,2.90753,2.32303,1.68821l45.70534-56.41935c4.88951-5.11175,13.52043-2.3073,14.47152,4.70231l3.76379,72.18964c.22658,1.67245,2.64439,1.67245,2.87135,0l3.76379-72.18964c.95109-7.00961,9.582-9.81406,14.47152-4.70231l45.312,56.41935c1.16624,1.21932,3.12228-.2014,2.32303-1.68821l-39.22242-60.84353c-3.35042-6.22962,1.98359-13.57158,8.94401-12.31015l70.02867,18.7608c1.66024,.30091,2.40758-1.99891,.88697-2.73129l-67.70212-25.9195c-6.37277-3.07035-6.37277-12.14534,0-15.2161l67.70212-25.91909c1.52061-.73239,.77327-3.03182-.88697-2.73091l-70.02867,18.76004c-6.96042,1.26182-12.29443-6.08015-8.94401-12.30977l39.22242-60.84394c.79925-1.48602-1.15679-2.90751-2.32303-1.6878l-45.312,56.41935c-4.88951,5.11175-13.52043,2.3073-14.47152-4.7019l-3.76379-72.58378c-.11329-.83583-.77447-1.25394-1.43568-1.25394s-1.32239,.41811-1.43568,1.25394"/></clipPath><radialGradient id="radial-gradient-15" cx="-283.35758" cy="-65.90304" fx="-283.35758" fy="-65.90304" r=".39371" gradientTransform="translate(81574.95959 -18394.77795) scale(283.60126 -283.60126)" gradientUnits="userSpaceOnUse"><stop offset="0" stop-color="#604870"/><stop offset=".21679" stop-color="#604870"/><stop offset=".8417" stop-color="#b0e0ab"/><stop offset="1" stop-color="#b0e0ab"/></radialGradient><clipPath id="clippath-21"><rect class="cls-13" x="1006" y="822" width="590" height="590"/></clipPath><clipPath id="clippath-22"><rect class="cls-13" x="1006" y="822" width="590" height="590"/></clipPath><clipPath id="clippath-23"><path class="cls-13" d="M1104.59293,1117.33905c0,108.61546,88.05042,196.66627,196.66627,196.66627s196.66707-88.05081,196.66707-196.66627-88.05083-196.66707-196.66707-196.66707-196.66627,88.05083-196.66627,196.66707"/></clipPath><radialGradient id="radial-gradient-16" cx="-284.3268" cy="-65.85695" fx="-284.3268" fy="-65.85695" r=".39333" gradientTransform="translate(143464.65955 -31811.13873) scale(500 -500)" gradientUnits="userSpaceOnUse"><stop offset="0" stop-color="#259999"/><stop offset=".85651" stop-color="#259999"/><stop offset="1" stop-color="#fff"/></radialGradient><clipPath id="clippath-24"><rect class="cls-13" x="1006" y="822" width="590" height="590"/></clipPath><clipPath id="clippath-25"><path class="cls-13" d="M1104.59293,1117.33905c0,108.61546,88.05042,196.66627,196.66627,196.66627s196.66707-88.05081,196.66707-196.66627-88.05083-196.66707-196.66707-196.66707-196.66627,88.05083-196.66627,196.66707"/></clipPath><radialGradient id="radial-gradient-17" cx="-284.3268" cy="-65.85695" fx="-284.3268" fy="-65.85695" r=".39333" gradientTransform="translate(143464.65955 -31811.13873) scale(500 -500)" gradientUnits="userSpaceOnUse"><stop offset="0" stop-color="#fff"/><stop offset=".77211" stop-color="#fff"/><stop offset=".85651" stop-color="#fff"/><stop offset=".86" stop-color="#000"/><stop offset="1" stop-color="#000"/></radialGradient><mask id="mask-3" x="1104.59292" y="920.67203" width="393.33331" height="393.33332" maskUnits="userSpaceOnUse"><rect class="cls-75" x="1104.59292" y="920.67203" width="393.33331" height="393.33332"/></mask><radialGradient id="radial-gradient-18" cx="-284.3268" cy="-65.85695" fx="-284.3268" fy="-65.85695" r=".39333" gradientTransform="translate(143464.65955 -31811.13873) scale(500 -500)" gradientUnits="userSpaceOnUse"><stop offset="0" stop-color="#84c299"/><stop offset=".77211" stop-color="#84c299"/><stop offset=".85651" stop-color="#fff"/><stop offset=".86" stop-color="#fff"/><stop offset="1" stop-color="#fff"/></radialGradient><clipPath id="clippath-26"><path class="cls-13" d="M1293.33353,956.40395c-15.67,23.884-46.34134,32.88976-72.43626,21.26953l-26.09727-26.26681,13.19871,34.55591c-.27022,28.56466-21.20344,52.7228-49.43848,57.05535l-36.5269-7.83126,30.15765,21.77807c15.21532,24.17584,10.66602,55.81636-10.7443,74.72625l-35.14669,13.23568,37.3289,1.94071c25.87072,12.1119,39.14965,41.18947,31.36165,68.67245l-22.67055,30.4735,32.71117-18.88591c28.31174-3.79763,55.20315,13.48465,63.50996,40.81542l-3.00114,37.85716,17.71258-33.53757c21.76472-18.50122,53.73052-18.50122,75.49484,0l17.71258,33.53757-3.00114-37.85716c8.30641-27.33076,35.19822-44.61305,63.50999-40.81542l32.71115,18.88591-22.67054-30.4735c-7.78802-27.48298,5.4913-56.56055,31.36161-68.67245l37.32893-1.94071-35.14711-13.23568c-21.41031-18.90989-25.95957-50.55042-10.74388-74.72625l30.15765-21.77807-36.5269,7.83126c-28.23506-4.33255-49.16825-28.49069-49.43848-57.05535l13.19871-34.55591-26.09689,26.26681c-26.09569,11.62023-56.76664,2.61448-72.43705-21.26953l-7.27273-35.67728-8.0598,35.67728Z"/></clipPath><radialGradient id="radial-gradient-19" cx="-284.29967" cy="-65.93039" fx="-284.29967" fy="-65.93039" r=".39333" gradientTransform="translate(141249.69067 -31341.47485) scale(492.25766 -492.25766)" gradientUnits="userSpaceOnUse"><stop offset="0" stop-color="#fff"/><stop offset=".59796" stop-color="#fff"/><stop offset=".89816" stop-color="#fff"/><stop offset=".9" stop-color="#000"/><stop offset="1" stop-color="#000"/></radialGradient><mask id="mask-4" x="1106.29998" y="920.72671" width="389.39992" height="385.07331" maskUnits="userSpaceOnUse"><rect class="cls-39" x="1106.29998" y="920.72671" width="389.39992" height="385.07331"/></mask><radialGradient id="radial-gradient-20" cx="-284.29967" cy="-65.93039" fx="-284.29967" fy="-65.93039" r=".39333" gradientTransform="translate(141249.69946 -31341.47681) scale(492.25769 -492.25769)" gradientUnits="userSpaceOnUse"><stop offset="0" stop-color="#1b0c3d"/><stop offset=".59796" stop-color="#1b0c3d"/><stop offset=".89816" stop-color="#fff"/><stop offset=".9" stop-color="#fff"/><stop offset="1" stop-color="#fff"/></radialGradient><clipPath id="clippath-27"><path class="cls-13" d="M1299.37829,1004.66478l-4.03443,69.76279c-1.04234,6.84636-9.44394,9.57569-14.31064,4.65038l-44.01163-54.07155c-1.64139-1.66103-4.33296,.29462-3.26034,2.36905l37.48349,58.81397c3.18049,6.15095-2.0119,13.29781-8.8445,12.17326l-67.35282-17.72398c-2.30454-.37919-3.33271,2.78519-1.24529,3.83262l64.85948,25.39833c6.18833,3.10693,6.18833,11.94042,0,15.04735l-64.85948,25.39792c-2.08742,1.04784-1.05926,4.21222,1.24529,3.83344l67.35282-17.72478c6.83261-1.12375,12.025,6.0227,8.8445,12.17365l-37.48349,58.42064c-1.07262,2.07482,1.61895,4.03009,3.26034,2.36905l44.01163-53.6778c4.86671-4.92572,13.2683-2.19598,14.31064,4.64959l4.03443,69.36983c.35163,2.30848,3.67883,2.30848,4.03008,0l4.03481-69.36983c1.04196-6.84557,9.44314-9.5753,14.31026-4.64959l44.01163,53.6778c1.64139,1.66104,4.33296-.29423,3.26034-2.36905l-37.48349-58.42064c-3.18049-6.15095,2.0119-13.2974,8.8445-12.17365l67.35281,17.72478c2.30416,.37878,3.33272-2.7856,1.2453-3.83344l-64.85948-25.39792c-6.18833-3.10693-6.18833-11.94042,0-15.04735l64.85948-25.39833c2.08742-1.04743,1.05886-4.21182-1.2453-3.83262l-67.35281,17.72398c-6.83261,1.12454-12.025-6.02232-8.8445-12.17326l37.48349-58.42064c1.07262-2.07443-1.61895-4.03008-3.26034-2.36905l-44.01163,53.67821c-4.86712,4.92531-13.2683,2.19598-14.31026-4.65038l-4.03481-69.76279c-.1758-1.15402-1.09542-1.73144-2.01504-1.73144s-1.83924,.57742-2.01504,1.73144"/></clipPath><radialGradient id="radial-gradient-21" cx="-283.05021" cy="-68.80211" fx="-283.05021" fy="-68.80211" r=".39333" gradientTransform="translate(81558.49854 -18391.20947) scale(283.5437 -283.5437)" gradientUnits="userSpaceOnUse"><stop offset="0" stop-color="#473347"/><stop offset=".20131" stop-color="#473347"/><stop offset=".9027" stop-color="#bff589"/><stop offset="1" stop-color="#bff589"/></radialGradient><clipPath id="clippath-28"><rect class="cls-13" x="590" y="590" width="590" height="590"/></clipPath><clipPath id="clippath-29"><rect class="cls-13" x="590" y="590" width="590" height="590"/></clipPath><clipPath id="clippath-30"><path class="cls-13" d="M688.33333,885c0,108.61625,88.05042,196.66667,196.66667,196.66667s196.66667-88.05042,196.66667-196.66667-88.05083-196.66667-196.66667-196.66667-196.66667,88.05083-196.66667,196.66667"/></clipPath><radialGradient id="radial-gradient-22" cx="-285.158" cy="-65.394" fx="-285.158" fy="-65.394" r=".39333" gradientTransform="translate(143464 -31812) scale(500 -500)" gradientUnits="userSpaceOnUse"><stop offset="0" stop-color="#fff"/><stop offset=".87612" stop-color="#fff"/><stop offset="1" stop-color="#000"/></radialGradient><mask id="mask-5" x="688.33333" y="688.33333" width="393.33333" height="393.33333" maskUnits="userSpaceOnUse"><rect class="cls-34" x="688.33333" y="688.33333" width="393.33333" height="393.33333"/></mask><radialGradient id="radial-gradient-23" cx="-285.158" cy="-65.394" fx="-285.158" fy="-65.394" r=".39333" gradientTransform="translate(143464 -31812) scale(500 -500)" gradientUnits="userSpaceOnUse"><stop offset="0" stop-color="#23adad"/><stop offset=".87612" stop-color="#23adad"/><stop offset="1" stop-color="#fff"/></radialGradient><clipPath id="clippath-31"><rect class="cls-13" x="590" y="590" width="590" height="590"/></clipPath><clipPath id="clippath-32"><path class="cls-13" d="M688.33333,885c0,108.61625,88.05042,196.66667,196.66667,196.66667s196.66667-88.05042,196.66667-196.66667-88.05083-196.66667-196.66667-196.66667-196.66667,88.05083-196.66667,196.66667"/></clipPath><radialGradient id="radial-gradient-24" cx="-285.158" cy="-65.394" fx="-285.158" fy="-65.394" r=".39333" gradientTransform="translate(143464 -31812) scale(500 -500)" gradientUnits="userSpaceOnUse"><stop offset="0" stop-color="#fff"/><stop offset=".72732" stop-color="#fff"/><stop offset=".82429" stop-color="#fff"/><stop offset=".83" stop-color="#000"/><stop offset="1" stop-color="#000"/></radialGradient><mask id="mask-6" x="688.33333" y="688.33333" width="393.33333" height="393.33333" maskUnits="userSpaceOnUse"><rect class="cls-61" x="688.33333" y="688.33333" width="393.33333" height="393.33333"/></mask><radialGradient id="radial-gradient-25" cx="-285.158" cy="-65.394" fx="-285.158" fy="-65.394" r=".39333" gradientTransform="translate(143464 -31812) scale(500 -500)" gradientUnits="userSpaceOnUse"><stop offset="0" stop-color="#6fd6a1"/><stop offset=".72732" stop-color="#6fd6a1"/><stop offset=".82429" stop-color="#fff"/><stop offset=".83" stop-color="#fff"/><stop offset="1" stop-color="#fff"/></radialGradient><clipPath id="clippath-33"><path class="cls-13" d="M867.57769,734.21529c-14.30632,21.52751-40.96409,31.22986-65.76099,23.93509l-43.0767-23.79705,16.3843,46.19463c2.87801,25.68665-11.30597,50.25465-34.99093,60.6056l-49.0467,10.01977,42.99644,24.29542c18.71598,17.82743,23.6417,45.76473,12.15204,68.91829l-31.54848,38.94629,48.9704-8.77015c25.79676,1.62644,47.52805,19.86136,53.60896,44.98356l.47397,50.31992,32.26906-38.40271c20.80655-15.33606,49.17533-15.33606,69.98188,0l32.26906,38.40271,.47357-50.31992c6.08133-25.1222,27.81261-43.35713,53.60938-44.98356l48.97038,8.77015-31.54848-38.94629c-11.49007-23.15356-6.56356-51.09086,12.15243-68.91829l42.99606-24.29542-49.04668-10.01977c-23.68499-10.35095-37.86897-34.91894-34.99135-60.6056l16.3847-46.19463-43.07629,23.79705c-24.79731,7.29477-51.45469-2.40758-65.76179-23.93509l-17.42193-45.88196-17.42231,45.88196Z"/></clipPath><radialGradient id="radial-gradient-26" cx="-285.13909" cy="-65.48884" fx="-285.13909" fy="-65.48884" r=".39333" gradientTransform="translate(140322.67822 -31146.01416) scale(489.01636 -489.01636)" gradientUnits="userSpaceOnUse"><stop offset="0" stop-color="#660866"/><stop offset=".53624" stop-color="#660866"/><stop offset=".88373" stop-color="#fff"/><stop offset="1" stop-color="#fff"/></radialGradient><clipPath id="clippath-34"><path class="cls-13" d="M884.02296,770.23319l-3.15493,74.43204c-.70485,6.25795-8.71784,8.40476-12.45686,3.33784l-39.94811-62.80708c-.69582-.94322-2.16136-.09716-1.69253,.97704l34.48393,65.962c2.51811,5.77178-3.34765,11.63795-9.11943,9.11905l-65.9624-34.48393c-1.07379-.46845-1.91985,.99709-.97703,1.6925l62.80746,39.94852c5.06693,3.73902,2.92011,11.75239-3.33743,12.45686l-74.43204,3.15454c-1.16466,.13137-1.16466,1.82349,0,1.95447l74.43204,3.15493c6.25754,.70485,8.40436,8.71784,3.33743,12.45686l-63.2008,39.94811c-.94282,.69582-.09676,2.16136,.97703,1.69253l66.35573-34.48393c5.77178-2.51811,11.63754,3.34765,9.11943,9.11943l-34.48393,65.9624c-.46884,1.07379,.99671,1.91985,1.69253,.97703l39.94811-62.80746c3.73902-5.06693,11.75201-2.92011,12.45686,3.33743l3.15493,74.43204c.13098,1.16466,1.8231,1.16466,1.95447,0l3.15454-74.43204c.70447-6.25754,8.71784-8.40436,12.45686-3.33743l39.94852,62.80746c.69542,.94282,2.16096,.09676,1.6925-.97703l-34.48393-65.9624c-2.5189-5.77178,3.34727-11.63754,9.11905-9.11943l65.962,34.48393c1.0742,.46884,1.92026-.99671,.97704-1.69253l-62.80708-39.94811c-5.06693-3.73902-2.92011-11.75201,3.33784-12.45686l74.43204-3.15493c1.16425-.13098,1.16425-1.8231,0-1.95447l-74.43204-3.15454c-6.25795-.70447-8.40476-8.71784-3.33784-12.45686l63.2008-39.94852c.94283-.69542,.09677-2.16096-.97743-1.6925l-66.35534,34.48393c-5.77178,2.5189-11.63795-3.34727-9.11905-9.11905l34.48393-66.35534c.46845-1.0742-.99709-1.92026-1.6925-.97743l-39.94852,63.2008c-3.73902,5.06693-11.75239,2.92011-12.45686-3.33784l-3.15454-74.43204c-.06568-.58213-.52156-.87319-.97743-.87319s-.91174,.29106-.97704,.87319"/></clipPath><radialGradient id="radial-gradient-27" cx="-284.56803" cy="-67.7726" fx="-284.56803" fy="-67.7726" r=".39358" gradientTransform="translate(84548 -19040) scale(294 -294)" gradientUnits="userSpaceOnUse"><stop offset="0" stop-color="#6551b8"/><stop offset="0" stop-color="#6551b8"/><stop offset="1" stop-color="#76d65e"/></radialGradient><clipPath id="clippath-35"><rect class="cls-13" y="591" width="590" height="590"/></clipPath><clipPath id="clippath-36"><rect class="cls-13" y="591" width="590" height="590"/></clipPath><clipPath id="clippath-42"><path class="cls-13" d="M98.10874,886c0,108.61625,88.05081,196.66667,196.66626,196.66667s196.66705-88.05042,196.66705-196.66667-88.05078-196.66667-196.66705-196.66667-196.66626,88.05083-196.66626,196.66667"/></clipPath><radialGradient id="radial-gradient-28" cx="-286.33731" cy="-65.396" fx="-286.33731" fy="-65.396" r=".39333" gradientTransform="translate(143463.42859 -31812) scale(500 -500)" gradientUnits="userSpaceOnUse"><stop offset="0" stop-color="#8ca32e"/><stop offset=".88918" stop-color="#8ca32e"/><stop offset="1" stop-color="#fff"/></radialGradient><clipPath id="clippath-43"><rect class="cls-13" y="591" width="590" height="590"/></clipPath><clipPath id="clippath-44"><path class="cls-13" d="M98.10874,886c0,108.61625,88.05081,196.66667,196.66626,196.66667s196.66705-88.05042,196.66705-196.66667-88.05078-196.66667-196.66705-196.66667-196.66626,88.05083-196.66626,196.66667"/></clipPath><radialGradient id="radial-gradient-29" cx="-286.33731" cy="-65.396" fx="-286.33731" fy="-65.396" r=".39333" gradientTransform="translate(143463.42859 -31812) scale(500 -500)" gradientUnits="userSpaceOnUse"><stop offset="0" stop-color="#fff"/><stop offset=".73722" stop-color="#fff"/><stop offset=".8009" stop-color="#fff"/><stop offset=".81" stop-color="#000"/><stop offset="1" stop-color="#000"/></radialGradient><mask id="mask-7" x="98.10875" y="689.33333" width="393.33331" height="393.33333" maskUnits="userSpaceOnUse"><rect class="cls-89" x="98.10875" y="689.33333" width="393.33331" height="393.33333"/></mask><radialGradient id="radial-gradient-30" cx="-286.33731" cy="-65.396" fx="-286.33731" fy="-65.396" r=".39333" gradientTransform="translate(143463.42859 -31812) scale(500 -500)" gradientUnits="userSpaceOnUse"><stop offset="0" stop-color="#607a31"/><stop offset=".73722" stop-color="#607a31"/><stop offset=".8009" stop-color="#fff"/><stop offset=".81" stop-color="#fff"/><stop offset="1" stop-color="#fff"/></radialGradient><clipPath id="clippath-45"><path class="cls-13" d="M265.43825,751.54492c-3.27018,6.95689-11.88811,9.4872-18.40053,5.40281l-58.41984-36.64059,9.06083,68.36174c1.00969,7.62045-4.87182,14.409-12.55873,14.49356l-68.95527,.76031,44.58118,52.61109c4.97017,5.86459,3.69183,14.75511-2.72894,18.98227l-57.59777,37.9197,65.94785,20.15636c7.3514,2.24712,11.08256,10.41743,7.96657,17.44432l-27.95341,63.03994,66.37618-18.6975c7.39939-2.08428,14.95572,2.77182,16.13334,10.36826l10.56572,68.1454,45.73131-51.61517c5.09758-5.75368,14.07936-5.75368,19.17735,0l45.7305,51.61517,10.56613-68.1454c1.17803-7.59644,8.73395-12.45254,16.13296-10.36826l66.37656,18.6975-27.95341-63.03994c-3.11637-7.0269,.61516-15.19721,7.96658-17.44432l65.94782-20.15636-57.59774-37.9197c-6.42038-4.22716-7.69871-13.11768-2.72894-18.98227l44.58115-52.61109-68.95524-.76031c-7.68693-.08455-13.56844-6.87311-12.55836-14.49356l9.06045-68.36174-58.41984,36.64059c-6.51242,4.08439-15.13035,1.55408-18.40053-5.40281l-29.33716-62.40825-29.33675,62.40825Z"/></clipPath><radialGradient id="radial-gradient-31" cx="-286.34306" cy="-65.46798" fx="-286.34306" fy="-65.46798" r=".39333" gradientTransform="translate(141066.06641 -31303.69568) scale(491.61761 -491.61761)" gradientUnits="userSpaceOnUse"><stop offset="0" stop-color="#491d66"/><stop offset=".5807" stop-color="#491d66"/><stop offset=".87564" stop-color="#fff"/><stop offset="1" stop-color="#fff"/></radialGradient><clipPath id="clippath-46"><path class="cls-13" d="M292.62545,774.24297l-3.0444,70.22851c-1.05571,7.44068-10.20621,10.4139-15.43442,5.01462l-43.39371-55.29442c-1.61107-1.66379-4.29008,.28242-3.20527,2.32893l38.46761,58.87334c3.51916,6.64026-2.1358,14.42432-9.53913,13.12908l-67.75874-18.68098c-2.28134-.39883-3.30479,2.75019-1.22405,3.76814l65.87703,24.47201c6.75038,3.30401,6.75038,12.92534,0,16.22894l-65.87703,24.47201c-2.08074,1.01795-1.05729,4.16697,1.22405,3.76776l67.75874-18.68098c7.40333-1.29485,13.05829,6.48882,9.53913,13.12947l-38.86094,58.87375c-1.08481,2.04611,1.5942,3.99232,3.20527,2.32853l43.78705-55.29442c5.22821-5.39887,14.37871-2.42607,15.43442,5.015l3.0444,70.2281c.32527,2.29314,3.63675,2.29314,3.96205,0l3.04478-70.2281c1.0561-7.44107,10.20621-10.41387,15.43401-5.015l44.18079,54.90109c1.61107,1.66379,4.28967-.28242,3.20527-2.32853l-39.25428-58.48041c-3.51955-6.64064,2.13618-14.42432,9.53872-13.12947l67.75916,18.68098c2.28094,.39922,3.30437-2.7498,1.22444-3.76776l-65.87743-24.47201c-6.75038-3.3036-6.75038-12.92493,0-16.22894l66.27076-24.47201c2.07993-1.01795,1.05689-4.16697-1.22485-3.76814l-68.15208,18.68098c-7.40254,1.29523-13.05826-6.48882-9.53872-13.12908l38.86094-58.48c1.0844-2.04651-1.5942-3.99273-3.20527-2.32893l-43.78745,54.90109c-5.2278,5.39928-14.37791,2.42607-15.43401-5.01462l-3.04478-70.22851c-.16246-1.14615-1.07185-1.71963-1.98083-1.71963-.90939,0-1.81837,.57348-1.98122,1.71963"/></clipPath><radialGradient id="radial-gradient-32" cx="-286.59732" cy="-68.01116" fx="-286.59732" fy="-68.01116" r=".39333" gradientTransform="translate(81236.74976 -18321.78491) scale(282.42395 -282.42395)" gradientUnits="userSpaceOnUse"><stop offset="0" stop-color="#5b4966"/><stop offset=".23972" stop-color="#5b4966"/><stop offset=".87794" stop-color="#76c255"/><stop offset="1" stop-color="#76c255"/></radialGradient><clipPath id="clippath-54"><rect class="cls-13" x="1509" y="0" width="590" height="590"/></clipPath><clipPath id="clippath-55"><rect class="cls-13" x="1509" y="0" width="590" height="590"/></clipPath><clipPath id="clippath-56"><path class="cls-13" d="M1607.59293,295.33905c0,108.61546,88.05042,196.66627,196.66627,196.66627s196.66707-88.05081,196.66707-196.66627-88.05083-196.66707-196.66707-196.66707-196.66627,88.05083-196.66627,196.66707"/></clipPath><radialGradient id="radial-gradient-33" cx="-283.3208" cy="-64.21295" fx="-283.3208" fy="-64.21295" r=".39333" gradientTransform="translate(143464.65955 -31811.13873) scale(500 -500)" gradientUnits="userSpaceOnUse"><stop offset="0" stop-color="#7d990c"/><stop offset=".84557" stop-color="#7d990c"/><stop offset="1" stop-color="#fff"/></radialGradient><clipPath id="clippath-57"><rect class="cls-13" x="1509" y="0" width="590" height="590"/></clipPath><clipPath id="clippath-58"><path class="cls-13" d="M1607.59293,295.33905c0,108.61546,88.05042,196.66627,196.66627,196.66627s196.66707-88.05081,196.66707-196.66627-88.05083-196.66707-196.66707-196.66707-196.66627,88.05083-196.66627,196.66707"/></clipPath><radialGradient id="radial-gradient-34" cx="-283.3208" cy="-64.21295" fx="-283.3208" fy="-64.21295" r=".39333" gradientTransform="translate(143464.65955 -31811.13873) scale(500 -500)" gradientUnits="userSpaceOnUse"><stop offset="0" stop-color="#fff"/><stop offset=".7405" stop-color="#fff"/><stop offset=".80546" stop-color="#fff"/><stop offset=".81" stop-color="#000"/><stop offset="1" stop-color="#000"/></radialGradient><mask id="mask-8" x="1607.59292" y="98.67203" width="393.33331" height="393.33332" maskUnits="userSpaceOnUse"><rect class="cls-3" x="1607.59292" y="98.67203" width="393.33331" height="393.33332"/></mask><radialGradient id="radial-gradient-35" cx="-283.3208" cy="-64.21295" fx="-283.3208" fy="-64.21295" r=".39333" gradientTransform="translate(143464.65955 -31811.13873) scale(500 -500)" gradientUnits="userSpaceOnUse"><stop offset="0" stop-color="#4ea35f"/><stop offset=".7405" stop-color="#4ea35f"/><stop offset=".80546" stop-color="#fff"/><stop offset=".81" stop-color="#fff"/><stop offset="1" stop-color="#fff"/></radialGradient><clipPath id="clippath-59"><path class="cls-13" d="M1799.3744,135.06122c-16.09519,26.51932-49.74958,36.40143-77.62747,22.79326l-23.94693-28.44781,16.16443,33.44947c.79728,31.01156-22.17181,57.51948-52.98121,61.14367l-35.94988-10.81314,32.10701,19.2281c17.43687,25.65753,12.44507,60.37587-11.51404,80.0811l-36.3263,10.4308,37.64279-1.27401c28.54027,12.15754,43.1113,44.06277,33.60915,73.59346l-25.23193,28.37388,31.29006-21.38239c30.58245-5.20262,60.08914,13.76038,68.06123,43.74063l-6.13128,37.82176,15.00764-35.21553c22.91481-20.91078,57.9899-20.91078,80.90471,0l15.00764,35.21553-6.13167-37.82176c7.97208-29.98025,37.47955-48.94324,68.06198-43.74063l31.28969,21.38239-25.23196-28.37388c-9.50213-29.53069,5.06854-61.43592,33.60916-73.59346l37.6428,1.27401-36.32629-10.4308c-23.9591-19.70522-28.95052-54.42356-11.51407-80.0811l32.10703-19.2281-35.95029,10.81314c-30.80858-3.62419-53.77849-30.13211-52.98119-61.14367l16.16481-33.44947-23.94693,28.44781c-27.87788,13.60817-61.53228,3.72606-77.62788-22.79326l-4.23186-36.33455-5.01894,36.33455Z"/></clipPath><radialGradient id="radial-gradient-36" cx="-283.27785" cy="-64.26053" fx="-283.27785" fy="-64.26053" r=".39333" gradientTransform="translate(141249.69067 -31341.47485) scale(492.25766 -492.25766)" gradientUnits="userSpaceOnUse"><stop offset="0" stop-color="#fff"/><stop offset=".53874" stop-color="#fff"/><stop offset=".85634" stop-color="#fff"/><stop offset=".86" stop-color="#000"/><stop offset="1" stop-color="#000"/></radialGradient><mask id="mask-9" x="1609.29998" y="98.72671" width="389.39992" height="385.07331" maskUnits="userSpaceOnUse"><rect class="cls-95" x="1609.29998" y="98.72671" width="389.39992" height="385.07331"/></mask><radialGradient id="radial-gradient-37" cx="-283.27785" cy="-64.26053" fx="-283.27785" fy="-64.26053" r=".39333" gradientTransform="translate(141249.69946 -31341.47681) scale(492.25769 -492.25769)" gradientUnits="userSpaceOnUse"><stop offset="0" stop-color="#481f70"/><stop offset=".53874" stop-color="#481f70"/><stop offset=".85634" stop-color="#fff"/><stop offset=".86" stop-color="#fff"/><stop offset="1" stop-color="#fff"/></radialGradient><clipPath id="clippath-60"><path class="cls-13" d="M1802.77083,183.21229l-3.61553,77.41825c-.63326,5.63803-7.61178,7.90522-11.43773,3.71621l-48.19632-60.49269c-.99433-1.08875-2.71675,.16284-1.98868,1.4447l42.34626,64.74386c2.80132,4.9328-1.51159,10.86898-7.06898,9.72909l-74.20706-20.27398c-1.44432-.29618-2.10197,1.72909-.75991,2.33837l71.97292,27.15061c5.16603,2.34466,5.16603,9.68192,0,12.02658l-71.97292,27.54433c-1.34206,.60928-.68441,2.63416,.75991,2.33758l74.20706-20.6669c5.55739-1.13988,9.8703,4.79629,7.06898,9.7295l-42.34626,64.74345c-.72807,1.28227,.99435,2.53345,1.98868,1.44511l48.19632-60.49349c3.82595-4.18863,10.80447-1.92144,11.43773,3.7166l3.61553,77.81195c.16443,1.46477,2.29391,1.46477,2.45833,0l3.61553-77.81195c.63326-5.63803,7.61178-7.90522,11.43773-3.7166l48.58965,60.49349c.99394,1.08834,2.71675-.16284,1.98868-1.44511l-42.73959-64.74345c-2.80132-4.93321,1.51159-10.86939,7.06898-9.7295l74.99372,20.6669c1.44432,.29658,2.10197-1.7283,.75992-2.33758l-72.75958-27.54433c-5.16644-2.34466-5.16644-9.68192,0-12.02658l72.75958-27.15061c1.34205-.60928,.6844-2.63455-.75992-2.33837l-74.99372,20.27398c-5.55739,1.13988-9.8703-4.79629-7.06898-9.72909l43.13292-64.35052c.72807-1.28186-.99435-2.53345-1.98868-1.4447l-48.98299,60.09936c-3.82595,4.18901-10.80447,1.92182-11.43773-3.71621l-3.61553-77.41825c-.0822-.73275-.65568-1.09895-1.22917-1.09895s-1.14697,.36621-1.22917,1.09895"/></clipPath><radialGradient id="radial-gradient-38" cx="-281.22022" cy="-65.95003" fx="-281.22022" fy="-65.95003" r=".39367" gradientTransform="translate(80608.19092 -18185.19873) scale(280.22095 -280.22095)" gradientUnits="userSpaceOnUse"><stop offset="0" stop-color="#332470"/><stop offset=".12156" stop-color="#332470"/><stop offset=".66346" stop-color="#74a33b"/><stop offset="1" stop-color="#74a33b"/></radialGradient></defs><g id="Layer_1"><g id="Zac"><g class="cls-64"><g class="cls-43"><g class="cls-22"><rect class="cls-48" x="1520.33333" y="1152.33333" width="393.33333" height="393.33333"/></g><g class="cls-72"><path class="cls-8" d="M1717,1129.12667l22.19971,35.88302c10.62473,17.17372,32.78159,23.11069,50.5701,13.54993l37.16686-19.9754,1.28381,42.17516c.61478,20.18546,16.83469,36.40537,37.02015,37.02015l42.17516,1.28381-19.9754,37.16686c-9.56076,17.78851-3.62378,39.94537,13.54993,50.57008l35.88302,22.19973-35.88302,22.19973c-17.17372,10.62473-23.11069,32.78159-13.54993,50.57008l19.9754,37.16686-42.17516,1.28383c-20.18546,.6148-36.40537,16.83469-37.02015,37.02015l-1.28381,42.17518-37.16686-19.97545c-17.78851-9.56076-39.94537-3.62378-50.5701,13.54993l-22.19971,35.88302-22.19973-35.88302c-10.62473-17.17372-32.78159-23.11069-50.57008-13.54993l-37.16686,19.97545-1.28384-42.17518c-.61478-20.18546-16.83466-36.40535-37.02014-37.02015l-42.17517-1.28383,19.97543-37.16686c9.56076-17.78849,3.62378-39.94535-13.54994-50.57008l-35.88301-22.19973,35.88301-22.19973c17.17373-10.62471,23.1107-32.78156,13.54994-50.57008l-19.97543-37.16686,42.17517-1.28381c20.18547-.61478,36.40536-16.83469,37.02014-37.02015l1.28384-42.17516,37.16686,19.9754c17.78849,9.56076,39.94535,3.62378,50.57008-13.54993l22.19973-35.88302Z"/></g><g class="cls-44"><g class="cls-78"><rect class="cls-68" x="1520.33333" y="1152.33333" width="393.33333" height="393.33333"/></g></g><g class="cls-85"><rect class="cls-24" x="1520.33333" y="1152.33333" width="392.94" height="392.94"/></g><g class="cls-28"><rect class="cls-21" x="1606.78879" y="1233.75338" width="219.63576" height="230.08264"/></g></g></g></g><g id="Boaz"><g class="cls-35"><g class="cls-74"><g class="cls-62"><rect class="cls-36" x="1936.33333" y="1384.33333" width="393.33333" height="393.33333"/></g><g class="cls-91"><path class="cls-8" d="M2133,1355.22667l31.27432,52.0565c9.36762,15.59212,28.78886,21.90236,45.53227,14.79446l55.89972-23.73218-5.2966,60.49742c-1.5863,18.12046,10.41666,34.64125,28.14062,38.73193l59.17271,13.65731-39.8443,45.83042c-11.9341,13.72693-11.9341,34.148,0,47.87494l39.8443,45.83042-59.17271,13.65734c-17.72396,4.09065-29.72692,20.61144-28.14062,38.73191l5.2966,60.49742-55.89972-23.73216c-16.74341-7.10792-36.16465-.79766-45.53227,14.79446l-31.27432,52.05648-31.27435-52.05648c-9.36762-15.59212-28.78884-21.90238-45.53225-14.79446l-55.89975,23.73216,5.29663-60.49742c1.58631-18.12046-10.41665-34.64125-28.14064-38.73191l-59.17267-13.65734,39.84428-45.83042c11.93413-13.72693,11.93413-34.148,0-47.87494l-39.84428-45.83042,59.17267-13.65731c17.724-4.09068,29.72695-20.61147,28.14064-38.73193l-5.29663-60.49742,55.89975,23.73218c16.74341,7.1079,36.16463,.79766,45.53225-14.79446l31.27435-52.0565Z"/></g><g class="cls-6"><g class="cls-77"><rect class="cls-19" x="1936.33333" y="1384.33333" width="393.33333" height="393.33333"/></g></g><g class="cls-54"><rect class="cls-98" x="1946.16667" y="1384.33338" width="373.66662" height="393.33327"/></g><g class="cls-23"><rect class="cls-4" x="2019.44307" y="1467.32671" width="227.11379" height="223.62883"/></g></g></g></g><g id="Delhove"><g class="cls-83"><g class="cls-27"><g class="cls-7"><rect class="cls-96" x="1017.59292" y="98.67203" width="393.33331" height="393.33332"/></g><g class="cls-84"><path class="cls-8" d="M1214,67.65333l31.71327,51.61636c7.72114,12.5666,23.69598,17.25712,36.98514,10.85993l54.58484-26.27699-1.22681,60.56781c-.29894,14.74606,10.60425,27.32877,25.24257,29.13142l60.12608,7.4053-33.77788,50.29003c-8.22341,12.24327-5.854,28.72315,5.48583,38.15372l46.57773,38.73664-55.60433,24.04488c-13.53735,5.85398-20.45377,20.99849-16.01263,35.06289l18.24127,57.76889-59.77687-9.83413c-14.55369-2.39423-28.55952,6.60682-32.42755,20.83958l-15.88674,58.46034-44.97057-40.59083c-10.94885-9.88209-27.59784-9.88209-38.54667,0l-44.9706,40.59083-15.88674-58.46034c-3.86803-14.23277-17.87384-23.23382-32.42757-20.83958l-59.77684,9.83413,18.24123-57.76889c4.44113-14.0644-2.47525-29.20891-16.0126-35.06289l-55.60436-24.04488,46.57775-38.73664c11.33981-9.43057,13.70924-25.91045,5.48582-38.15372l-33.77788-50.29003,60.1261-7.4053c14.63829-1.80265,25.5415-14.38536,25.24257-29.13142l-1.22681-60.56781,54.58482,26.27699c13.28916,6.39719,29.26401,1.70667,36.98514-10.85993l31.71329-51.61636Z"/></g><g class="cls-82"><g class="cls-20"><rect class="cls-53" x="1017.59292" y="98.67203" width="393.33331" height="393.33332"/></g></g><g class="cls-67"><rect class="cls-81" x="1019.3" y="98.33333" width="389.39995" height="385.46665"/></g><g class="cls-5"><rect class="cls-63" x="1104.92944" y="180.93333" width="218.92772" height="228.94478"/></g></g></g></g><g id="Eden"><g class="cls-37"><g class="cls-58"><g class="cls-92"><rect class="cls-16" x="1104.59292" y="920.67203" width="393.33331" height="393.33332"/></g><g class="cls-55"><path class="cls-8" d="M1301,901.74694l11.37243,17.33264c18.66329,28.44546,55.19254,39.17167,86.27216,25.33188l18.93783-8.43271,.19585,20.72946c.32218,34.02016,25.25357,62.79251,58.8816,67.95265l20.49074,3.14429-11.04243,17.54503c-18.12166,28.79357-12.70353,66.47765,12.7963,88.99913l15.53787,13.72341-18.77461,8.78981c-30.81218,14.42511-46.62772,49.05614-37.35212,81.78894l5.6522,19.94515-20.54653-2.75609c-33.71969-4.52293-65.74726,16.06019-75.64076,48.61169l-6.02863,19.83462-15.7947-13.42682c-25.92144-22.03533-63.99299-22.03533-89.91443,0l-15.7947,13.42682-6.02861-19.83462c-9.89352-32.5515-41.92107-53.13462-75.64076-48.61169l-20.54655,2.75609,5.65221-19.94515c9.27559-32.7328-6.53996-67.36383-37.35212-81.78894l-18.7746-8.78981,15.53786-13.72341c25.49981-22.52148,30.91797-60.20557,12.79631-88.99913l-11.04243-17.54503,20.4907-3.14429c33.62803-5.16015,58.55946-33.93249,58.8816-67.95265l.19589-20.72946,18.93782,8.43271c31.07961,13.83979,67.60888,3.11358,86.27215-25.33188l11.37246-17.33264Z"/></g><g class="cls-26"><g class="cls-29"><rect class="cls-97" x="1104.59292" y="920.67203" width="393.33331" height="393.33332"/></g></g><g class="cls-30"><g class="cls-60"><rect class="cls-17" x="1106.29999" y="920.72667" width="389.39996" height="385.07335"/></g></g><g class="cls-46"><rect class="cls-18" x="1191.7147" y="1002.93338" width="219.35728" height="229.10365"/></g></g></g></g><g id="Israel"><g class="cls-99"><g class="cls-80"><g class="cls-56"><g class="cls-50"><rect class="cls-93" x="688.33333" y="688.33333" width="393.33333" height="393.33333"/></g></g><g class="cls-69"><path class="cls-8" d="M885,636.41333l22.16394,58.36952c18.20031,27.38622,52.11311,39.7294,83.65924,30.44948l54.80038-30.27409-20.84355,58.76718c-3.66152,32.67809,14.38341,63.93237,44.51393,77.10078l62.39567,12.74636-54.69811,30.90773c-23.81006,22.67959-30.07665,58.22042-15.4596,87.67595l40.13455,49.54586-62.29849-11.1573c-32.81736,2.06894-60.46357,25.26655-68.19966,57.22647l-.60258,64.01538-41.05141-48.85438c-26.46977-19.51009-62.55889-19.51009-89.02864,0l-41.05143,48.85438-.60258-64.01538c-7.73608-31.95992-35.38229-55.15753-68.19966-57.22647l-62.29849,11.1573,40.13455-49.54586c14.61705-29.45554,8.35047-64.99636-15.45958-87.67595l-54.69811-30.90773,62.39564-12.74636c30.13051-13.16841,48.17547-44.42268,44.51393-77.10078l-20.84352-58.76718,54.80038,30.27409c31.54611,9.27992,65.45891-3.06327,83.65924-30.44948l22.16394-58.36952Z"/></g><g class="cls-15"><g class="cls-70"><rect class="cls-32" x="688.33333" y="688.33333" width="393.33333" height="393.33333"/></g></g><g class="cls-11"><rect class="cls-33" x="691.08665" y="688.33333" width="387.82663" height="381.53333"/></g><g class="cls-40"><rect class="cls-52" x="769.06893" y="769.36" width="231.86214" height="231.57107"/></g></g></g></g><g id="Paris"><g class="cls-100"><g class="cls-45"><g class="cls-90"><rect class="cls-14" x="98.10875" y="689.33333" width="393.33331" height="393.33333"/></g><g class="cls-73"><path class="cls-8" d="M294.77524,635.75804l40.61205,86.39371c2.50592,5.33084,9.10959,7.26999,14.09981,4.14023l80.87285-50.72267-12.54297,94.63561c-.77409,5.83941,3.73311,11.04085,9.62327,11.10574l95.45728,1.05257-61.71555,72.83115c-3.80826,4.49424-2.82886,11.30677,2.09136,14.54587l79.73455,52.49348-91.29424,27.90345c-5.63333,1.72163-8.49205,7.98231-6.10454,13.36745l38.6969,87.26805-91.88698-25.88327c-5.66989-1.59734-11.46015,2.1236-12.36246,7.94493l-14.62687,94.3359-63.307-71.45256c-3.90621-4.40925-10.78875-4.40925-14.69495,0l-63.30698,71.45256-14.62689-94.3359c-.90231-5.82133-6.69257-9.54227-12.36246-7.94493l-91.88699,25.88327,38.69692-87.26805c2.38793-5.38514-.47121-11.64583-6.10453-13.36745l-91.29423-27.90345,79.73495-52.49348c4.91981-3.23909,5.89922-10.05163,2.09096-14.54587l-61.71557-72.83115,95.45728-1.05257c5.89017-.06489,10.39737-5.26633,9.62329-11.10574l-12.54301-94.63561,80.87286,50.72267c4.99022,3.12977,11.5939,1.19061,14.09981-4.14023l40.61207-86.39371Z"/></g><g class="cls-51"><g class="cls-88"><rect class="cls-59" x="98.10875" y="689.33333" width="393.33331" height="393.33333"/></g></g><g class="cls-1"><rect class="cls-10" x="100.41918" y="689.13671" width="388.71199" height="384.75586"/></g><g class="cls-25"><rect class="cls-31" x="185.41261" y="772.52333" width="218.78098" height="227.92015"/></g></g></g></g><g id="Rhonda"><g class="cls-71"><g class="cls-76"><g class="cls-94"><rect class="cls-79" x="1607.59292" y="98.67203" width="393.33331" height="393.33332"/></g><g class="cls-41"><path class="cls-8" d="M1804.39333,73.16l30.85739,50.84189c7.49141,12.34319,23.15515,16.94286,36.1308,10.609l53.44575-26.08825-1.52849,59.45393c-.37091,14.43373,10.31986,26.77142,24.65963,28.45843l59.06607,6.94822-33.42901,49.1895c-8.11562,11.94198-5.79221,28.10091,5.35917,37.27265l45.93309,37.77887-54.71583,23.30735c-13.28364,5.6589-20.06552,20.50881-15.64287,34.25344l18.21644,56.61482-58.63106-9.97414c-14.2343-2.42136-27.96793,6.40465-31.67824,20.35853l-15.28375,57.47583-43.93102-40.08891c-10.66523-9.73265-26.99094-9.73265-37.65617,0l-43.93099,40.08891-15.28375-57.47583c-3.71033-13.95387-17.44394-22.77989-31.67828-20.35853l-58.63106,9.97414,18.21645-56.61482c4.42264-13.74463-2.35922-28.59455-15.64287-34.25344l-54.7158-23.30735,45.93307-37.77887c11.15139-9.17174,13.47481-25.33068,5.35917-37.27265l-33.42901-49.1895,59.06608-6.94822c14.33975-1.68701,25.03055-14.0247,24.65924-28.45843l-1.52849-59.45393,53.44612,26.08825c12.97568,6.33386,28.63939,1.73418,36.1308-10.609l30.85741-50.84189Z"/></g><g class="cls-87"><g class="cls-57"><rect class="cls-47" x="1607.59292" y="98.67203" width="393.33331" height="393.33332"/></g></g><g class="cls-9"><g class="cls-38"><rect class="cls-86" x="1609.29999" y="98.72667" width="389.39996" height="385.07335"/></g></g><g class="cls-49"><rect class="cls-66" x="1696.5008" y="182.11333" width="215.78499" height="226.53285"/></g></g></g></g></g><g id="Layer_2"><line class="cls-12" x1="1431.5" y1="294.5" x2="1581.5" y2="294.5"/><line class="cls-12" x1="1509.5" y1="294.5" x2="1509.5" y2="589.5"/><line class="cls-12" x1="2132.50059" y1="590.00001" x2="884.49991" y2="590.00001"/><line class="cls-12" x1="885.5" y1="590" x2="885.5" y2="665"/><line class="cls-12" x1="1301.5" y1="590" x2="1301.5" y2="885.5"/><line class="cls-12" x1="1716.5" y1="590" x2="1716.5" y2="1117.5"/><line class="cls-12" x1="2132.5" y1="590" x2="2132.5" y2="1349.5"/><line class="cls-12" x1="515" y1="885.5" x2="665" y2="885.5"/></g></svg>