<?xml version="1.0" encoding="UTF-8"?>
<svg id="Layer_2" data-name="Layer 2" xmlns="http://www.w3.org/2000/svg" viewBox="0 0 923.94 767.8">
  <defs>
    <style>
      .cls-1 {
        fill: #e03c31;
      }

      .cls-1, .cls-2, .cls-3, .cls-4, .cls-5 {
        stroke-width: 0px;
      }

      .cls-2 {
        fill: #6a6dcd;
      }

      .cls-3, .cls-6 {
        fill: #fff;
      }

      .cls-6 {
        stroke: #fff;
        stroke-miterlimit: 10;
        stroke-width: 23px;
      }

      .cls-4 {
        fill: #a1d884;
      }

      .cls-5 {
        fill: #f4da40;
      }
    </style>
  </defs>
  <g id="Layer_2-2" data-name="Layer 2">
    <path class="cls-6" d="m462.08,11.5h.1c4.1,0,18.5,1,30.2,14,9.6,10.6,14.9,26.6,16.7,50.2v.4c-.27,3.62-.48,4.29-.55,4.55l7.75-3.45,1.3-.5c18.7-7.2,36.5-3.6,48,.7,21.6,7.9,36.6,23,41.5,33.6l4.8,10,295.6,609.1-2.3.6c-4.7,1.3-13.3,3.2-23.8,3.2-9.6,0-20.7-1.5-32-6.5-4.7-2-9.3-4.6-13.7-7.7l-.9-.6s-3.43-2.61-6.4-5.1l-3.4-3.3c-7.75-7.51-14.56-16.59-20.63-27.65l-5.77,2.35-2.6.5c-3.8.8-10.2,1.8-18,1.8-10.8,0-24.3-1.9-37.7-8.9-6.8-3.6-13.2-8.3-19.1-14l-.6-.6-6.5-6.9-3.6-5c-4.44-6.14-8.41-12.96-11.98-20.63l-6.22,1.33-2.7.3c-2.5.2-5.6.5-9.4.5-15.4-.1-40.3-3.7-61.2-22.8-6.45-5.51-11.77-11.61-16.09-18.4l50.39,80.9-.5,1c-7.4,14.1-16.7,22.5-27.5,24.7-1.7.3-3.4.5-5.2.6h-1.4c-3,0-5.7-.3-8.3-1.1-9.7-2.3-17.6-8-19.8-9.7l-.5-.3-4.48-3.06-1.42,5.06-.2.6c-5.7,19.9-15.2,32.7-28.1,38-5,2-10.1,2.8-14.9,2.8-10.1,0-19.2-3.3-23.5-5.2l-.42-.17-.58-.23-5.96-2.64-1.94,3.14-.4.6c-1.35,2.24-2.78,4.28-4.26,6.19-17.05,21.99-40.93,22.51-41.94,22.51h-.01c-1.01,0-24.89-.53-41.94-22.51-1.48-1.9-2.91-3.95-4.26-6.19l-.4-.6-1.94-3.14-5.96,2.64-.58.23-.42.17c-4.3,1.9-13.4,5.2-23.5,5.2-4.8,0-9.9-.8-14.9-2.8-12.9-5.3-22.4-18.1-28.1-38l-.2-.6-1.42-5.06-4.48,3.06-.5.3c-2.2,1.7-10.1,7.4-19.8,9.7-2.6.8-5.3,1.1-8.3,1.1h-1.4c-1.8-.1-3.5-.3-5.2-.6-10.8-2.2-20.1-10.6-27.5-24.7l-.5-1,50.39-80.9c-4.32,6.79-9.64,12.89-16.09,18.4-20.9,19.1-45.8,22.7-61.2,22.8-3.8,0-6.9-.3-9.4-.5l-2.7-.3-6.22-1.33c-3.57,7.67-7.54,14.49-11.98,20.63l-3.6,5-6.5,6.9-.6.6c-5.9,5.7-12.3,10.4-19.1,14-13.4,7-26.9,8.9-37.7,8.9-7.8,0-14.2-1-18-1.8l-2.6-.5-5.77-2.35c-6.08,11.06-12.88,20.14-20.63,27.65l-3.4,3.3c-2.97,2.49-6.4,5.1-6.4,5.1l-.9.6c-4.4,3.1-9,5.7-13.7,7.7-11.3,5-22.4,6.5-32,6.5-10.5,0-19.1-1.9-23.8-3.2l-2.3-.6L312.07,121l4.8-10c4.9-10.6,19.9-25.7,41.5-33.6,11.5-4.3,29.3-7.9,48-.7l1.3.5,7.75,3.45c-.07-.26-.29-.93-.55-4.55v-.4c1.8-23.6,7.1-39.6,16.7-50.2,11.7-13,26.1-14,30.2-14h.31Z"/>
    <g id="Layer_1-2" data-name="Layer 1-2">
      <g id="LOGO">
        <g id="logomark">
          <g>
            <g>
              <path class="cls-5" d="m518.32,388.6v136.4c.5.3,1.1.6,1.6.9,21.1,11.3,41.2,13.2,53.8,5-11.2-54.2-19.7-107.3-24.8-142.4h-30.6v.1Z"/>
              <path class="cls-3" d="m554.82,538c-10.8,0-23.2-3.5-35.9-10.3-.5-.3-1.1-.6-1.7-.9l-1-.6v-139.6h34.3l.2,1.7c5.1,35,13.6,88.1,24.8,142.2l.3,1.3-1.1.7c-5.4,3.7-12.2,5.5-19.9,5.5h0Zm-34.5-14.1c.2.1.4.2.6.3,19.8,10.6,38.6,12.8,50.6,5.8-10.9-52.9-19.2-104.7-24.3-139.4h-26.9v133.3h0Z"/>
            </g>
            <g>
              <path class="cls-5" d="m416.12,566.5h91.7v-35.9c-22-13.9-43.2-37.8-41-59.6,1.1-10.9,1.2-26.9,1.3-45.3v-.1c.1-11.4.2-24.2.5-36.9h-13.4c.4,12.6.4,25,.5,36.9.1,18.5.2,34.4,1.3,45.4,2.2,21.9-19,45.7-41,59.6v35.9h.1Z"/>
              <path class="cls-3" d="m509.82,568.5h-95.7v-39l.9-.6c21.5-13.6,42.2-36.7,40.1-57.8-1.1-11-1.2-27-1.3-45.5-.1-12-.2-24.3-.5-37l-.1-2.1h17.5l-.1,2.1c-.4,12.6-.4,25.4-.5,36.7v.3c-.1,18.5-.2,34.5-1.3,45.5-2.1,21,18.6,44.2,40.1,57.8l.9.6v39h0Zm-91.7-4h87.7v-32.8c-22.2-14.3-43.2-38.5-41-60.9,1.1-10.8,1.2-26.7,1.3-45.1v-.3c.1-10.7.2-22.8.5-34.8h-9.2c.3,12,.4,23.6.5,34.9.1,18.5.2,34.4,1.3,45.2,2.2,22.4-18.8,46.6-41,60.9v32.9h-.1Z"/>
            </g>
            <g>
              <polygon class="cls-5" points="211.82 332 211.82 378.7 303.52 378.7 303.52 143 211.82 332"/>
              <path class="cls-3" d="m305.52,380.7h-95.7v-49.2l.2-.4,95.5-196.8v246.4h0Zm-91.7-4h87.7v-225l-87.7,180.7v44.3Z"/>
            </g>
            <g>
              <path class="cls-5" d="m836.82,718c4.3,3,8.8,5.5,13.3,7.5,23.1,10.1,45.6,5.7,54.5,3.2l-67.8-139.8v129.1h0Z"/>
              <path class="cls-3" d="m881.32,733.9c-9.6,0-20.7-1.5-32-6.5-4.7-2-9.3-4.7-13.7-7.7l-.8-.6v-138.8l72.6,149.8-2.3.6c-4.6,1.3-13.2,3.2-23.8,3.2h0Zm-42.5-16.9c3.9,2.7,8,4.9,12.1,6.8,20.7,9.1,41.1,6.1,50.8,3.7l-62.9-129.8v119.3h0Z"/>
            </g>
            <g>
              <path class="cls-5" d="m160.32,576.4h-62.7v132.9c12.7-12.3,23.2-29.6,31.2-51.4,8.5-23.2,19.1-50.6,31.5-81.5h0Z"/>
              <path class="cls-3" d="m95.62,714v-139.6h67.6l-1.1,2.7c-12.4,30.9-22.9,58.3-31.4,81.4-8.1,22.1-18.8,39.6-31.7,52.2l-3.4,3.3h0Zm4-135.6v126c11-11.8,20.1-27.7,27.3-47.2,8.3-22.5,18.5-49,30.4-78.8h-57.7Z"/>
            </g>
            <g>
              <path class="cls-5" d="m303.72,609.4c10.7-9.2,18.3-20,23.2-33h-74.8c-3.4,11.4-6.6,22.2-9.4,32.2-2.3,7.9-5,15.5-8.1,22.7,12.5,1.2,43.8,1.4,69.1-21.9h0Z"/>
              <path class="cls-3" d="m243.72,633.7c-3.8,0-6.9-.2-9.4-.5l-2.7-.3,1.1-2.5c3.1-7.1,5.8-14.6,8-22.4,2.9-9.8,6-20.7,9.5-32.2l.4-1.4h79.2l-1,2.7c-5,13.4-12.8,24.5-23.8,33.8-20.9,19.2-45.8,22.8-61.3,22.8h0Zm-6.3-4.2c13.5.9,41.8-.3,64.9-21.5h0c9.7-8.3,16.8-18,21.6-29.5h-70.4c-3.2,11-6.3,21.3-9,30.7-2,7-4.4,13.8-7.1,20.3h0Z"/>
            </g>
            <g>
              <path class="cls-5" d="m691.02,605.7c5.2,18,12.3,33.3,21.1,45.4v-262.5h-87.1c2.2,7.2,13.5,44.5,25.6,84l2,6.7c17.3,56.7,36.9,121,38.4,126.4Z"/>
              <path class="cls-3" d="m714.12,657.3l-3.6-5c-8.9-12.3-16.1-27.8-21.4-46h0c-1.5-5.4-20.8-68.6-37.8-124.3l-4.2-13.7c-11.3-37.1-22-72.1-24-79l-.8-2.6h91.8v270.6Zm-21.1-52.1c4.4,15.2,10.1,28.4,17.1,39.4v-254h-82.4c3.2,10.7,13,42.7,23.3,76.4l4.2,13.7c16.9,55.9,36.2,119.1,37.8,124.5h0Z"/>
            </g>
            <g>
              <polygon class="cls-5" points="462.02 156.6 461.92 156.4 416.12 105 416.12 191 507.82 191 507.82 105.8 462.02 156.6"/>
              <path class="cls-3" d="m509.82,193h-95.7v-93.3l47.9,53.9,47.8-52.9v92.3h0Zm-91.7-4h87.7v-77.9l-43.8,48.5-1.6-1.9-42.3-47.5v78.8h0Z"/>
            </g>
            <g>
              <path class="cls-5" d="m610.82,696.8c2.6.7,5.5,1.1,9.1,1,1.7-.1,3.3-.2,4.9-.5,10.2-2.1,19-10.1,26.2-23.7l-31.7-50.2-9.1-9.5c-9.9-9.9-18-22.5-24.2-37.5h-36.8l42.5,111.1c2.2,1.6,9.8,7.1,19.1,9.3Z"/>
              <path class="cls-3" d="m618.52,699.8c-3,0-5.7-.3-8.3-1.1-9.7-2.3-17.6-8-19.8-9.7l-.5-.3-43.7-114.3h41l.5,1.2c6,14.7,14,27.1,23.7,36.9l9.4,9.8,32.3,51.1-.5,1c-7.4,14.1-16.7,22.5-27.5,24.7-1.7.3-3.3.5-5.2.6-.5.1-.9.1-1.4.1h0Zm-25.2-13.6c2.5,1.9,9.5,6.6,17.9,8.6h.1c2.6.7,5.3,1,8.5.9,1.6,0,3.1-.2,4.5-.5,9.4-2,17.5-9.2,24.3-21.7l-30.9-49-9-9.3c-9.8-9.8-17.9-22.2-24.1-36.9h-32.5l41.2,107.9h0Z"/>
            </g>
          </g>
          <g>
            <g>
              <path class="cls-1" d="m350.22,531c12.6,8.2,32.7,6.3,53.8-5,.5-.3,1.1-.6,1.6-.9v-136.5h-30.6c-5.1,35.1-13.6,88.1-24.8,142.4h0Z"/>
              <path class="cls-3" d="m369.12,538c-7.7,0-14.5-1.8-20-5.3l-1.2-.7.3-1.3c11.2-54.2,19.6-107.3,24.8-142.2l.2-1.7h34.3v139.6l-1,.6c-.5.3-1.1.6-1.7.9-12.5,6.6-24.9,10.1-35.7,10.1h0Zm-16.6-8c12,6.9,30.8,4.8,50.6-5.8.2-.1.4-.2.6-.3v-133.3h-26.9c-5.2,34.7-13.4,86.4-24.3,139.4h0Z"/>
            </g>
            <g>
              <polygon class="cls-1" points="620.52 143 620.52 378.7 712.12 378.7 712.12 332 620.52 143"/>
              <path class="cls-3" d="m714.12,380.7h-95.7v-246.4l95.7,197.2v49.2h0Zm-91.6-4h87.6v-44.3l-87.7-180.7v225h.1Z"/>
            </g>
            <g>
              <path class="cls-1" d="m518.32,566.5h64.1c-2-6.1-3.8-12.5-5.2-19-.4-2-.9-4.1-1.3-6.1-6.1,3.1-13.2,4.7-21,4.7-11.2,0-23.8-3.3-36.5-9.7v30.1h-.1Z"/>
              <path class="cls-3" d="m585.12,568.5h-68.8v-35.3l2.9,1.4c12.5,6.2,24.8,9.5,35.7,9.5,7.5,0,14.3-1.5,20.1-4.5l2.3-1.2.5,2.6c.4,2,.9,4.1,1.3,6.1,1.4,6.4,3.1,12.7,5.1,18.8l.9,2.6h0Zm-64.8-4h59.3c-1.7-5.3-3.1-10.9-4.4-16.5-.3-1.2-.5-2.5-.8-3.7-5.8,2.5-12.4,3.8-19.6,3.8-10.6,0-22.5-2.9-34.5-8.5v24.9h0Z"/>
            </g>
            <g>
              <path class="cls-1" d="m454.92,378.7h14c1.6-37.7,6-61.7,13.9-75.4,12.3-21.4,16.6-73.3,18-102.6h-77.9c1.4,29.2,5.7,81.2,18,102.6,8,13.7,12.5,37.7,14,75.4h0Z"/>
              <path class="cls-3" d="m470.92,380.7h-17.9l-.1-1.9c-1.6-37.4-5.9-61.1-13.6-74.4-12.6-21.7-16.8-74.1-18.3-103.5l-.1-2.1h82.1l-.1,2.1c-1.4,29.3-5.7,81.7-18.3,103.5-7.7,13.4-12.1,37-13.6,74.5l-.1,1.8h0Zm-14-4h10.2c1.7-37,6.2-60.6,14.1-74.4,11.9-20.5,16.1-70.3,17.6-99.6h-73.7c1.5,29.3,5.8,79.1,17.6,99.6,8,13.8,12.5,37.5,14.2,74.4h0Z"/>
            </g>
            <g>
              <path class="cls-1" d="m722.62,502.7v160.7c5.7,5.6,12,10.2,18.6,13.7,22.4,11.8,45.3,8.8,54.4,7-3.7-7-7-14.7-10-22.7-8.8-24-20-52.8-33-85.4l-30-73.3h0Z"/>
              <path class="cls-3" d="m778.02,687.8c-10.8,0-24.3-1.9-37.7-8.9-6.8-3.6-13.2-8.3-19.1-14l-.6-.6v-171.7l33.8,82.7c13.1,32.6,24.2,61.4,33,85.5,2.9,7.9,6.2,15.5,9.9,22.4l1.2,2.3-2.6.5c-3.7.8-10.1,1.8-17.9,1.8h0Zm-53.4-25.2c5.4,5.2,11.3,9.5,17.5,12.7,20,10.5,40.4,9,50.4,7.3-3.2-6.4-6.2-13.3-8.9-20.5-8.8-24-20-52.8-33-85.3l-26.1-63.8v149.6h.1Z"/>
            </g>
            <g>
              <path class="cls-1" d="m462.02,13.5h-.1c-1.7,0-16.7,0-28.8,13.3-9.3,10.3-14.4,25.9-16.2,49,.8,10.4,5.1,20.5,12.1,28.3l33,37.1,32.9-37.1c7.3-8.3,11.6-18.9,12.1-29.9-1.8-22.3-6.9-37.4-16-47.5-12.1-13.2-27.3-13.2-29-13.2h0Z"/>
              <path class="cls-3" d="m462.02,144.3l-34.5-38.8c-7.3-8.2-11.7-18.7-12.6-29.5v-.2c1.8-23.7,7.1-39.6,16.7-50.2,11.7-13,26.1-14,30.2-14h.1v2-2c4.2,0,18.7,1,30.4,14,9.4,10.4,14.7,25.9,16.6,48.6v.2c-.5,11.5-5,22.6-12.6,31.2l-34.3,38.7h0Zm-43-68.5c.8,9.9,4.9,19.5,11.6,27l31.5,35.4,31.3-35.4c7-7.9,11.1-18,11.6-28.6-1.8-21.8-6.8-36.4-15.5-46.1-10.6-11.7-23.7-12.6-27.4-12.6h-.1c-3.7,0-16.7.9-27.3,12.6-9,10-14,25.1-15.7,47.7h0Z"/>
            </g>
            <g>
              <path class="cls-1" d="m405.72,725.1c-6.3,2.8-22.3,8.4-36.9,2.4-12.3-5.1-21.4-17.4-26.9-36.7l43.7-114.4h43.7l-23.6,148.7h0Z"/>
              <path class="cls-3" d="m383.02,732.2c-4.9,0-10-.8-14.9-2.8-12.9-5.3-22.4-18.1-28.1-38l-.2-.6.2-.6,44.2-115.7h47.4l-24.1,152.1-1,.4c-4.4,1.8-13.4,5.2-23.5,5.2h0Zm-39-41.3c5.4,18.3,14,30,25.6,34.8,13.2,5.4,27.8.8,34.3-2l23-145.3h-40l-42.9,112.5h0Z"/>
            </g>
            <g>
              <path class="cls-1" d="m201.32,353.6l-103.3,212.9h66.2c11.2-27.8,23.7-58.1,37.1-90.2v-122.7h0Z"/>
              <path class="cls-3" d="m165.62,568.5h-70.8l108.5-223.6v131.9l-.2.4c-13.4,32-25.9,62.4-37.1,90.2l-.4,1.1Zm-64.4-4h61.7c11-27.4,23.3-57.2,36.4-88.6v-113.6l-98.1,202.2Z"/>
            </g>
          </g>
          <g>
            <g>
              <path class="cls-4" d="m348.02,541.4c-.4,2-.9,4.1-1.3,6.1-1.4,6.5-3.1,12.9-5.1,19h64.1v-30.1c-12.7,6.3-25.4,9.7-36.5,9.7-8,.1-15-1.5-21.2-4.7h0Z"/>
              <path class="cls-3" d="m407.62,568.5h-68.8l.9-2.6c2-6,3.7-12.3,5.1-18.8.4-2,.9-4.1,1.3-6.1l.5-2.6,2.3,1.2c5.8,3,12.6,4.5,20.1,4.5,10.9,0,23.2-3.3,35.6-9.5l2.9-1.4v35.3h.1Zm-63.3-4h59.3v-24.9c-12,5.6-23.9,8.5-34.5,8.5-7.2,0-13.8-1.3-19.6-3.8-.3,1.2-.5,2.5-.8,3.7-1.2,5.6-2.7,11.2-4.4,16.5Z"/>
            </g>
            <g>
              <path class="cls-4" d="m462.02,754.2c1.1,0,28.1-.5,44.5-27.7l-22.1-150.1h-44.9l-22.1,150.1c16.5,27.2,43.4,27.7,44.6,27.7h0Z"/>
              <path class="cls-3" d="m462.02,756.2h0c-1.2,0-29.2-.5-46.3-28.7l-.4-.6,22.4-152.6h48.4l22.4,152.6-.4.6c-16.9,28.2-44.9,28.7-46.1,28.7h0Zm-42.5-30.1c15.8,25.5,41.2,26.1,42.5,26.1s26.6-.6,42.5-26.1l-21.7-147.7h-41.5l-21.8,147.7h0Z"/>
            </g>
            <g>
              <path class="cls-4" d="m271.52,478.7c12.9-42.5,25.2-82.6,27.4-90.1h-87.1v262.5c8.8-12.1,15.8-27.4,21.1-45.4,1.6-5.4,21.2-69.7,38.5-126.4l.1-.6h0Z"/>
              <path class="cls-3" d="m209.82,657.3v-270.7h91.8l-.8,2.6c-2.3,7.5-14.5,47.7-27.4,90.1h0l-.2.6c-17.3,56.7-36.9,120.9-38.4,126.4-5.3,18.2-12.5,33.7-21.4,46l-3.6,5h0Zm4-266.7v254c7-11,12.7-24.2,17.1-39.5,1.6-5.5,21.2-69.7,38.5-126.4l.2-.6c11.9-38.9,23.1-75.8,26.7-87.5h-82.5Z"/>
            </g>
            <g>
              <path class="cls-4" d="m605.42,111.9c-4.8-10.3-19.4-24.9-40.5-32.7-11.3-4.1-28.5-7.6-46.6-.7v112.4h91.7v-69.6l-4.6-9.4h0Z"/>
              <path class="cls-3" d="m612.02,193h-95.7v-115.8l1.3-.5c18.7-7.1,36.5-3.6,48,.7,21.5,7.9,36.6,23,41.6,33.7l4.8,9.9v72h0Zm-91.7-4h87.7v-67.1l-4.4-9.1c-4.6-10-18.8-24.1-39.3-31.6-10.7-3.9-26.8-7.2-43.9-1.2l-.1,109h0Z"/>
            </g>
            <g>
              <path class="cls-4" d="m73.82,725.6c4.6-2,9-4.5,13.3-7.5v-129l-67.8,139.8c8.9,2.3,31.5,6.8,54.5-3.3h0Z"/>
              <path class="cls-3" d="m42.62,733.9c-10.6,0-19.2-1.9-23.8-3.2l-2.3-.6,72.6-149.8v138.8l-.8.6c-4.4,3.1-9,5.7-13.7,7.7h0c-11.3,4.9-22.4,6.5-32,6.5h0Zm-20.4-6.5c9.7,2.4,30.1,5.4,50.8-3.7h0c4.1-1.8,8.2-4.1,12.1-6.8v-119.2s-62.9,129.7-62.9,129.7Z"/>
            </g>
            <g>
              <path class="cls-4" d="m722.62,476.3c13.4,32.1,25.9,62.4,37.1,90.2h66.2l-103.3-212.9v122.7h0Z"/>
              <path class="cls-3" d="m829.12,568.5h-70.8l-.5-1.2c-11.2-27.7-23.6-58-37.1-90.2l-.2-.4v-131.8l108.6,223.6Zm-68-4h61.7l-98.1-202.2v113.6c13.1,31.5,25.4,61.3,36.4,88.6h0Z"/>
            </g>
            <g>
              <rect class="cls-4" x="314.02" y="200.8" width="91.7" height="177.9"/>
              <path class="cls-3" d="m407.62,380.7h-95.7v-181.9h95.7v181.9Zm-91.6-4h87.7v-173.9h-87.7v173.9h0Z"/>
            </g>
            <g>
              <path class="cls-4" d="m479.12,379.4l-.3,8.5c-.4,12.7-.5,25.3-.5,37.5v.1c-.1,18.8-.2,34.9-1.4,46.4-1.4,13.7,11,32.3,30.9,46.5V243.3c-3.5,30.9-8.9,52.8-16.1,65.2-7.1,12.3-11.1,34.8-12.6,70.9h0Z"/>
              <path class="cls-3" d="m509.82,522.3l-3.2-2.2c-20.4-14.5-33.1-33.9-31.7-48.3,1.1-11.3,1.2-27.5,1.3-46.2v-.1c.1-12.2.2-24.8.5-37.5l.3-8.6c1.5-36.5,5.6-59.3,12.8-71.9,7-12.2,12.4-33.8,15.8-64.4l4,.2.2,279h0Zm-28.7-142.8l-.3,8.5c-.4,12.7-.5,25.3-.5,37.4v.1c-.1,18.8-.2,35-1.4,46.6-1.2,12.2,9.5,28.9,26.9,42.3v-243.9c-3.2,17.3-7.4,30.3-12.4,38.9-6.9,12.1-10.8,34.3-12.3,70.1h0Z"/>
            </g>
            <g>
              <path class="cls-4" d="m559.22,388.6c5.8,39.2,15.3,98.2,28,156.8,1.6,7.4,3.6,14.5,6,21.1h75.8l-54.5-177.9h-55.3Z"/>
              <path class="cls-3" d="m671.62,568.5h-79.9l-.5-1.3c-2.4-6.6-4.4-13.8-6-21.3-12.7-58.7-22.2-117.8-28-157l-.3-2.3h59.1l55.6,181.9h0Zm-77.1-4h71.7l-53.2-173.9h-51.5c5.8,39.1,15.2,96.9,27.6,154.4,1.5,6.9,3.3,13.4,5.4,19.5h0Z"/>
            </g>
          </g>
          <g>
            <g>
              <path class="cls-2" d="m255.02,566.5h75.8c2.4-6.6,4.4-13.7,6-21.1,12.7-58.6,22.2-117.6,28-156.8h-55.3l-54.5,177.9h0Z"/>
              <path class="cls-3" d="m332.32,568.5h-79.9l55.6-181.9h59.1l-.3,2.3c-5.8,39.2-15.3,98.3-28,157-1.6,7.5-3.7,14.7-6,21.3l-.5,1.3h0Zm-74.6-4h71.7c2.1-6.1,4-12.7,5.4-19.5,12.4-57.4,21.8-115.2,27.6-154.4h-51.5l-53.2,173.9h0Z"/>
            </g>
            <g>
              <path class="cls-2" d="m359.02,79.2c-21,7.7-35.7,22.3-40.4,32.6l-4.6,9.6v69.6h91.7v-112.5c-18.2-6.9-35.4-3.4-46.7.7h0Z"/>
              <path class="cls-3" d="m407.62,193h-95.7v-72.1l4.8-10c4.9-10.6,20-25.6,41.5-33.6h0c11.6-4.3,29.3-7.8,48-.7l1.3.5.1,115.9h0Zm-91.6-4h87.7v-109c-17.1-6.1-33.3-2.8-43.9,1.2h0c-20.5,7.5-34.7,21.6-39.3,31.5l-4.5,9.2v67.1h0Z"/>
            </g>
            <g>
              <rect class="cls-2" x="518.32" y="200.8" width="91.7" height="177.9"/>
              <path class="cls-3" d="m612.02,380.7h-95.7v-181.9h95.7v181.9Zm-91.7-4h87.7v-173.9h-87.7v173.9Z"/>
            </g>
            <g>
              <path class="cls-2" d="m826.32,709.3v-132.9h-62.7c12.4,30.9,23,58.3,31.5,81.5,8,21.8,18.5,39.1,31.2,51.4Z"/>
              <path class="cls-3" d="m828.32,714l-3.4-3.3c-12.9-12.5-23.5-30.1-31.7-52.2-8.5-23-19-50.4-31.4-81.4l-1.1-2.7h67.6v139.6h0Zm-61.7-135.6c11.9,29.9,22.2,56.4,30.4,78.8,7.2,19.5,16.4,35.4,27.3,47.2v-126h-57.7Z"/>
            </g>
            <g>
              <path class="cls-2" d="m689.42,631.2c-3.1-7.1-5.8-14.8-8.1-22.7-3-10.2-6.1-21-9.4-32.2h-74.9c4.9,13.1,12.5,23.9,23.2,33,25.4,23.4,56.6,23.2,69.2,21.9h0Z"/>
              <path class="cls-3" d="m680.22,633.7c-15.5,0-40.4-3.5-61.3-22.8-10.9-9.3-18.7-20.4-23.8-33.8l-1-2.7h79.2l.4,1.4c3.2,10.9,6.4,21.7,9.5,32.2,2.3,7.8,5,15.4,8,22.4l1.1,2.5-2.7.3c-2.5.2-5.7.5-9.4.5h0Zm-80.3-55.3c4.8,11.5,11.9,21.2,21.6,29.5,23.2,21.3,51.5,22.5,65,21.5-2.7-6.5-5.1-13.3-7.1-20.3-2.9-10-5.9-20.3-9-30.7h-70.5Z"/>
            </g>
            <g>
              <path class="cls-2" d="m416.12,243.3v275.1c19.9-14.1,32.2-32.8,30.9-46.5-1.1-11.4-1.2-27.6-1.4-46.3-.1-12.2-.2-24.8-.5-37.7l-.3-8.5c-1.5-36.1-5.5-58.7-12.6-71-7.1-12.3-12.5-34.3-16.1-65.1h0Z"/>
              <path class="cls-3" d="m414.12,522.3V243.3l4-.2c3.5,30.6,8.8,52.3,15.9,64.4,7.3,12.6,11.4,35.4,12.8,71.9l.3,8.5c.4,12.9.5,25.5.5,37.7.1,18.7.2,34.8,1.3,46.1,1.4,14.4-11.3,33.8-31.7,48.3l-3.1,2.3h0Zm4-251.8v243.9c17.4-13.4,28.1-30,26.9-42.3-1.2-11.5-1.2-27.7-1.4-46.5-.1-12.2-.2-24.8-.5-37.6l-.3-8.5c-1.5-35.8-5.4-58-12.3-70-5-8.7-9.1-21.7-12.4-39h0Z"/>
            </g>
            <g>
              <path class="cls-2" d="m518.22,725.1c6.3,2.8,22.3,8.4,36.9,2.4,12.3-5.1,21.4-17.4,26.9-36.7l-43.7-114.4h-43.7l23.6,148.7h0Z"/>
              <path class="cls-3" d="m541.02,732.2c-10.1,0-19.2-3.3-23.5-5.2l-1-.4-24.1-152.1h47.4l44.5,116.3-.2.6c-5.7,19.9-15.2,32.7-28.1,38-5.1,2-10.2,2.7-15,2.8h0Zm-21-8.5c6.6,2.7,21.2,7.4,34.3,2,11.6-4.8,20.2-16.5,25.6-34.8l-43-112.5h-40l23.1,145.3Z"/>
            </g>
            <g>
              <path class="cls-2" d="m313.22,696.8c-2.6.7-5.5,1.1-9.1,1-1.7-.1-3.3-.2-4.9-.5-10.2-2.1-19-10.1-26.2-23.7l31.7-50.2,9.1-9.5c9.9-9.9,18-22.5,24.2-37.5h36.8l-42.5,111.1c-2.2,1.6-9.8,7.1-19.1,9.3h0Z"/>
              <path class="cls-3" d="m305.42,699.8h-1.4c-1.9-.1-3.5-.2-5.2-.6-10.9-2.3-20.1-10.6-27.5-24.7l-.5-1,32.5-51.5,9.1-9.5c9.8-9.8,17.7-22.2,23.8-36.9l.5-1.2h41l-43.7,114.3-.5.3c-2.2,1.7-10.1,7.3-19.8,9.7-2.6.7-5.3,1.1-8.3,1.1h0Zm-30-26.2c6.7,12.4,14.9,19.7,24.3,21.7,1.4.3,2.9.5,4.5.5,3.1.1,5.9-.2,8.5-.9h.1c8.4-2,15.4-6.8,17.9-8.6l41.2-107.8h-32.5c-6.1,14.7-14.2,27.1-24.1,36.9l-8.9,9.3-31,48.9h0Z"/>
            </g>
            <g>
              <path class="cls-2" d="m182.72,677.1c6.6-3.5,12.9-8.1,18.6-13.7v-160.7l-29.9,73.2c-13.1,32.5-24.2,61.3-33,85.4-2.9,8-6.3,15.6-10,22.7,9,1.9,31.9,4.9,54.3-6.9h0Z"/>
              <path class="cls-3" d="m145.92,687.8c-7.8,0-14.2-1-18-1.8l-2.6-.5,1.2-2.3c3.6-7,7-14.5,9.9-22.4,8.9-24.1,20-52.9,33-85.4l33.8-82.7v171.7l-.6.6c-5.8,5.7-12.3,10.4-19.1,14h0c-13.2,6.9-26.8,8.8-37.6,8.8h0Zm-14.5-5.2c10,1.7,30.4,3.2,50.4-7.3,6.2-3.3,12.1-7.5,17.5-12.7v-149.7l-26.1,63.8c-13,32.5-24.1,61.2-33,85.3-2.6,7.2-5.6,14.1-8.8,20.6h0Z"/>
            </g>
          </g>
        </g>
      </g>
    </g>
  </g>
</svg>