<svg width="364" height="305" viewBox="0 0 364 305" fill="none" xmlns="http://www.w3.org/2000/svg">
<g clip-path="url(#clip0_1_1141)">
<path d="M205.161 154.461V210.632C205.383 210.755 205.605 210.879 205.827 210.998C214.515 215.664 222.775 216.438 227.94 213.078C223.335 190.744 219.86 168.893 217.747 154.461H205.157H205.161Z" fill="#F4DA40"/>
<path d="M163.156 227.715H200.844V212.917C191.802 207.181 183.094 197.374 183.994 188.36C184.442 183.856 184.484 177.301 184.533 169.708V169.65C184.562 164.977 184.599 159.682 184.747 154.461H179.254C179.402 159.657 179.434 164.746 179.467 169.671C179.517 177.28 179.558 183.848 180.01 188.36C180.906 197.374 172.198 207.181 163.156 212.917V227.715Z" fill="#F4DA40"/>
<path d="M79.1499 131.129V150.395H116.838V53.3292L79.1499 131.129Z" fill="#F4DA40"/>
<path d="M336.123 290.091C337.882 291.326 339.729 292.372 341.599 293.191C351.089 297.358 360.353 295.534 364.004 294.513L336.127 236.962V290.086L336.123 290.091Z" fill="#F4DA40"/>
<path d="M57.9582 231.779H32.1943V286.497C37.408 281.428 41.7252 274.305 45.0228 265.325C48.526 255.793 52.8762 244.507 57.9541 231.779H57.9582Z" fill="#F4DA40"/>
<path d="M116.924 245.388C121.328 241.616 124.452 237.165 126.484 231.779H95.7035C94.3138 236.473 93.0063 240.929 91.8221 245.017C90.8764 248.278 89.7539 251.416 88.4834 254.352C93.6559 254.862 106.505 254.957 116.928 245.388H116.924Z" fill="#F4DA40"/>
<path d="M276.186 243.852C278.337 251.272 281.252 257.559 284.85 262.549V154.457H249.024C249.908 157.413 254.588 172.78 259.534 189.035L260.373 191.79C267.482 215.145 275.537 241.612 276.186 243.852Z" fill="#F4DA40"/>
<path d="M182.028 58.9256L181.963 58.8474L163.156 37.6628V73.0775H200.844V38.0293L182.028 58.9256Z" fill="#F4DA40"/>
<path d="M243.182 281.354C244.247 281.655 245.46 281.807 246.919 281.758C247.626 281.733 248.284 281.659 248.918 281.531C253.128 280.654 256.75 277.373 259.682 271.777L246.66 251.123L242.923 247.228C238.844 243.14 235.501 237.943 232.985 231.779H217.87L235.332 277.513C236.233 278.204 239.358 280.436 243.182 281.354Z" fill="#F4DA40"/>
<path d="M136.06 213.078C141.229 216.438 149.489 215.664 158.173 210.998C158.399 210.879 158.617 210.755 158.839 210.632V154.461H146.249C144.14 168.893 140.661 190.748 136.056 213.078H136.06Z" fill="#E03C31"/>
<path d="M247.162 53.3292V150.395H284.85V131.129L247.162 53.3292Z" fill="#E03C31"/>
<path d="M205.161 227.714H231.501C230.67 225.207 229.959 222.58 229.383 219.912C229.202 219.068 229.021 218.224 228.844 217.384C226.332 218.672 223.421 219.331 220.189 219.331C215.593 219.331 210.399 217.952 205.161 215.341V227.719V227.714Z" fill="#E03C31"/>
<path d="M179.11 150.397H184.887C185.541 134.857 187.358 124.996 190.61 119.363C195.688 110.572 197.427 89.1779 198.015 77.1383H165.985C166.573 89.182 168.317 110.577 173.391 119.363C176.643 124.992 178.46 134.853 179.114 150.397H179.11Z" fill="#E03C31"/>
<path d="M289.167 201.449V267.605C291.511 269.903 294.085 271.797 296.811 273.23C306.033 278.076 315.433 276.87 319.166 276.091C317.649 273.189 316.267 270.051 315.059 266.761C311.42 256.859 306.852 245.029 301.478 231.602L289.163 201.445L289.167 201.449Z" fill="#E03C31"/>
<path d="M182.025 7.3814e-08H181.971C181.28 7.3814e-08 175.092 -0.0082348 170.142 5.4804C166.326 9.70907 164.213 16.1283 163.493 25.6768C163.826 29.9631 165.59 34.1135 168.46 37.3458L182.029 52.6299L195.536 37.3416C198.545 33.9365 200.309 29.5596 200.511 25.018C199.754 15.84 197.657 9.62672 193.911 5.47628C188.957 -0.0082348 182.719 7.3814e-08 182.025 7.3814e-08Z" fill="#E03C31"/>
<path d="M158.868 293.007C156.269 294.147 149.691 296.47 143.692 293.999C138.626 291.911 134.897 286.826 132.615 278.88L150.595 231.779H168.551L158.868 293.007Z" fill="#E03C31"/>
<path d="M74.833 140.041L32.3633 227.715H59.5868C64.1837 216.264 69.3151 203.776 74.8371 190.583V140.037L74.833 140.041Z" fill="#E03C31"/>
<path d="M135.16 217.384C134.979 218.228 134.802 219.072 134.617 219.912C134.041 222.584 133.33 225.207 132.5 227.714H158.839V215.337C153.605 217.948 148.412 219.327 143.815 219.327C140.583 219.327 137.672 218.672 135.16 217.379V217.384Z" fill="#A1D884"/>
<path d="M182 305.001C182.469 305.001 193.55 304.787 200.313 293.6L191.231 231.779H172.765L163.687 293.6C170.45 304.787 181.531 304.997 182 305.001Z" fill="#A1D884"/>
<path d="M103.693 191.572C109.013 174.085 114.046 157.557 114.975 154.461H79.1499V262.554C82.7476 257.563 85.6587 251.276 87.8132 243.852C88.4629 241.612 96.5177 215.153 103.623 191.811L103.697 191.568L103.693 191.572Z" fill="#A1D884"/>
<path d="M240.958 40.5203C239.001 36.2711 232.965 30.2513 224.326 27.0725C219.692 25.3679 212.616 23.935 205.157 26.7884V73.0774H242.845V44.4196L240.958 40.5203Z" fill="#A1D884"/>
<path d="M22.4046 293.195C24.2754 292.372 26.1175 291.33 27.8814 290.091V236.967L0 294.517C3.65118 295.534 12.9189 297.358 22.4046 293.195Z" fill="#A1D884"/>
<path d="M289.167 190.583C294.693 203.784 299.824 216.276 304.417 227.715H331.641L289.167 140.037V190.579V190.583Z" fill="#A1D884"/>
<path d="M158.839 77.1423H121.151V150.397H158.839V77.1423Z" fill="#A1D884"/>
<path d="M189.047 150.681L188.924 154.197C188.772 159.426 188.735 164.614 188.702 169.63V169.683C188.653 177.408 188.612 184.07 188.143 188.776C187.584 194.413 192.682 202.084 200.844 207.902V94.6128C199.397 107.328 197.172 116.353 194.224 121.459C191.301 126.519 189.656 135.804 189.047 150.685V150.681Z" fill="#A1D884"/>
<path d="M221.966 154.461C224.334 170.614 228.253 194.895 233.462 219.032C234.124 222.095 234.951 225.014 235.917 227.719H267.092L244.699 154.461H221.966Z" fill="#A1D884"/>
<path d="M96.9087 227.715H128.084C129.054 225.006 129.876 222.082 130.538 219.027C135.748 194.895 139.662 170.614 142.035 154.457H119.301L96.9128 227.715H96.9087Z" fill="#6A6DCD"/>
<path d="M139.675 27.0725C131.036 30.2554 125.008 36.2546 123.059 40.4833L121.151 44.4196V73.0774H158.839V26.7884C151.381 23.935 144.304 25.3679 139.67 27.0725H139.675Z" fill="#6A6DCD"/>
<path d="M242.849 77.1423H205.161V150.397H242.849V77.1423Z" fill="#6A6DCD"/>
<path d="M331.806 286.497V231.779H306.046C311.128 244.515 315.482 255.801 318.977 265.325C322.275 274.305 326.592 281.428 331.806 286.497Z" fill="#6A6DCD"/>
<path d="M275.521 254.351C274.254 251.42 273.128 248.278 272.182 245.017C270.969 240.83 269.662 236.379 268.301 231.779H237.521C239.548 237.165 242.672 241.616 247.072 245.384C257.495 254.957 270.348 254.87 275.521 254.356V254.351Z" fill="#6A6DCD"/>
<path d="M163.156 94.6085V207.902C171.318 202.084 176.416 194.413 175.857 188.776C175.389 184.07 175.347 177.412 175.298 169.699C175.265 164.672 175.232 159.476 175.076 154.197L174.953 150.681C174.344 135.804 172.699 126.519 169.776 121.459C166.828 116.353 164.599 107.323 163.156 94.6085Z" fill="#6A6DCD"/>
<path d="M205.132 293.007C207.731 294.147 214.31 296.469 220.309 293.999C225.374 291.911 229.103 286.826 231.385 278.879L213.405 231.779H195.449L205.132 293.007Z" fill="#6A6DCD"/>
<path d="M120.818 281.354C119.753 281.655 118.54 281.807 117.081 281.758C116.373 281.733 115.715 281.659 115.082 281.531C110.872 280.654 107.25 277.372 104.318 271.777L117.34 251.123L121.077 247.228C125.156 243.139 128.499 237.943 131.015 231.779H146.13L128.667 277.512C127.767 278.204 124.642 280.436 120.818 281.354Z" fill="#6A6DCD"/>
<path d="M67.1893 273.234C69.9194 271.801 72.4892 269.907 74.8329 267.609V201.453L62.5184 231.61C57.1526 245.013 52.5845 256.842 48.9416 266.769C47.7327 270.055 46.3512 273.197 44.834 276.1C48.5633 276.878 57.9585 278.084 67.1893 273.238V273.234Z" fill="#6A6DCD"/>
</g>
<defs>
<clipPath id="clip0_1_1141">
<rect width="364" height="305" fill="white"/>
</clipPath>
</defs>
</svg>
