<svg width="18" height="18" viewBox="0 0 18 18" fill="none" xmlns="http://www.w3.org/2000/svg">
<path fill-rule="evenodd" clip-rule="evenodd" d="M4.35445 5H7.4V6.6H1.8V1H3.4V3.61628C4.78009 1.94601 6.75661 1 9 1C13.4183 1 17 4.58172 17 9C17 13.4183 13.4183 17 9 17C4.58172 17 1 13.4183 1 9H2.6C2.6 12.5346 5.46538 15.4 9 15.4C12.5346 15.4 15.4 12.5346 15.4 9C15.4 5.46538 12.5346 2.6 9 2.6C7.0851 2.6 5.44283 3.46296 4.35445 5Z" fill="black"/>
<path fill-rule="evenodd" clip-rule="evenodd" d="M1.6999 0.899902H3.4999V3.34571C4.88862 1.78128 6.82101 0.899902 8.9999 0.899902C13.4734 0.899902 17.0999 4.5264 17.0999 8.9999C17.0999 13.4734 13.4734 17.0999 8.9999 17.0999C4.5264 17.0999 0.899902 13.4734 0.899902 8.9999V8.8999H2.6999V8.9999C2.6999 12.4793 5.52051 15.2999 8.9999 15.2999C12.4793 15.2999 15.2999 12.4793 15.2999 8.9999C15.2999 5.52051 12.4793 2.6999 8.9999 2.6999C7.18422 2.6999 5.62007 3.4881 4.55149 4.8999H7.4999V6.6999H1.6999V0.899902ZM1.8999 1.0999V6.4999H7.2999V5.0999H4.16101L4.27274 4.94211C5.37975 3.37876 7.05236 2.4999 8.9999 2.4999C12.5898 2.4999 15.4999 5.41005 15.4999 8.9999C15.4999 12.5898 12.5898 15.4999 8.9999 15.4999C5.44344 15.4999 2.5541 12.6436 2.50066 9.0999H1.10052C1.15407 13.4169 4.67024 16.8999 8.9999 16.8999C13.363 16.8999 16.8999 13.363 16.8999 8.9999C16.8999 4.63685 13.363 1.0999 8.9999 1.0999C6.78625 1.0999 4.83802 2.03267 3.47699 3.67988L3.2999 3.8942V1.0999H1.8999Z" fill="black"/>
</svg>
