<svg width="163" height="27" viewBox="0 0 163 27" fill="none" xmlns="http://www.w3.org/2000/svg">
<path d="M148.535 27.0002V0.450195H151.235V27.0002H148.535ZM153.935 27.0002V0.450195H157.985V27.0002H153.935ZM160.685 27.0002V0.450195H162.035V27.0002H160.685Z" fill="black"/>
<path d="M133.682 27.0002V0.450195H137.732V27.0002H133.682ZM139.082 27.0002V0.450195H140.432V27.0002H139.082ZM143.132 27.0002V0.450195H145.832V27.0002H143.132Z" fill="black"/>
<path d="M118.828 27.0002V0.450195H120.178V27.0002H118.828ZM122.878 27.0002V0.450195H126.928V27.0002H122.878ZM129.628 27.0002V0.450195H132.328V27.0002H129.628Z" fill="black"/>
<path d="M103.975 27.0002V0.450195H108.025V27.0002H103.975ZM109.375 27.0002V0.450195H110.725V27.0002H109.375ZM113.425 27.0002V0.450195H116.125V27.0002H113.425Z" fill="black"/>
<path d="M89.1211 27.0002V0.450195H91.8211V27.0002H89.1211ZM94.5211 27.0002V0.450195H98.5711V27.0002H94.5211ZM101.271 27.0002V0.450195H102.621V27.0002H101.271Z" fill="black"/>
<path d="M74.2676 27.0002V0.450195H76.9676V27.0002H74.2676ZM78.3176 27.0002V0.450195H82.3676V27.0002H78.3176ZM85.0676 27.0002V0.450195H86.4176V27.0002H85.0676Z" fill="black"/>
<path d="M59.4141 27.0002V0.450195H62.1141V27.0002H59.4141ZM64.8141 27.0002V0.450195H68.8641V27.0002H64.8141ZM71.5641 27.0002V0.450195H72.9141V27.0002H71.5641Z" fill="black"/>
<path d="M44.5605 27.0002V0.450195H48.6105V27.0002H44.5605ZM51.3105 27.0002V0.450195H52.6605V27.0002H51.3105ZM54.0105 27.0002V0.450195H56.7105V27.0002H54.0105Z" fill="black"/>
<path d="M29.707 27.0002V0.450195H31.057V27.0002H29.707ZM33.757 27.0002V0.450195H37.807V27.0002H33.757ZM40.507 27.0002V0.450195H43.207V27.0002H40.507Z" fill="black"/>
<path d="M14.8535 27.0002V0.450195H17.5535V27.0002H14.8535ZM20.2535 27.0002V0.450195H21.6035V27.0002H20.2535ZM22.9535 27.0002V0.450195H27.0035V27.0002H22.9535Z" fill="black"/>
<path d="M0 27.0002V0.450195H2.7V27.0002H0ZM5.4 27.0002V0.450195H6.75V27.0002H5.4ZM8.1 27.0002V0.450195H12.15V27.0002H8.1Z" fill="black"/>
</svg>
