<?xml version="1.0" encoding="UTF-8"?>
<svg id="Layer_2" data-name="Layer 2" xmlns="http://www.w3.org/2000/svg" viewBox="0 0 1155.42 788.71">
  <defs>
    <style>
      .cls-1 {
        stroke-width: 0px;
      }
    </style>
  </defs>
  <g id="Layer_1-2" data-name="Layer 1">
    <g>
      <path class="cls-1" d="m965.2,386.83c-.45,2.56-1,5.11-1.34,7.69-4.46,33.95-8.07,68.04-13.62,101.82-3.7,22.56-6.91,45.3-13.78,67.32-4.01,12.88-6.04,26.37-9.56,39.42-3.54,13.12-7.94,26.01-11.77,39.06-3.74,12.74-7.13,25.57-10.85,38.31-5.31,18.19-9.82,36.69-16.54,54.36-3.8,9.99-9.95,19.92-17.45,27.48-16.1,16.22-44.93,14.17-54.6-9.55-3.61-8.86-9.03-16.97-13.09-25.67-2.65-5.69-5.07-11.68-6.34-17.79-5.76-27.66-10.76-55.48-16.62-83.12-6.06-28.6-12.7-57.08-19.26-85.57-2.62-11.4-6.6-22.3-13.47-31.99-1.71-2.41-2.94-5.23-4.04-7.99-4.34-10.86-14.06-15.32-24.94-10.48-9.71,4.32-19.14,9.35-26.8,17.04-1.64,1.65-3.24,3.46-5.19,4.66-13.81,8.49-23.98,20.9-35.17,32.22-7.02,7.1-13.77,14.52-21.27,21.08-13.9,12.16-24.34,27.24-36.28,41.07-14.95,17.32-28.01,36.44-46.57,50.44-6.44,11.32-19,14.95-28.24,22.67-6.87,5.74-15.13,4.22-22.51,6.79-2.39.83-7.06-2.11-9.45-4.55-11.87-12.06-21.12-25.52-20.6-43.57.55-18.96.63-37.94,1.53-56.88.44-9.26,1.65-18.58,3.65-27.63,2.02-9.14,3.41-18.17,3.56-27.57.11-6.85,2.28-13.64,3.07-20.51,1.24-10.89,2.53-21.81,2.94-32.75.32-8.48-.66-17.01-1.16-27.56-4.82,2.54-8.13,3.79-10.87,5.81-17.18,12.64-33.17,26.64-48.09,41.91-16.28,16.66-32.94,32.96-49.17,49.68-7.62,7.85-15.26,15.84-21.65,24.66-3.55,4.9-4.81,11.57-6.69,17.57-6.45,20.58-12.2,41.4-19.27,61.76-3.35,9.64-9.03,18.48-13.77,27.62-4.28,8.25-8.25,16.72-13.2,24.55-9.4,14.87-18.44,30.14-29.47,43.75-9.08,11.21-19.53,22.49-31.77,29.61-11.28,6.56-23.39,14.3-37.89,13.93-3.91-.1-7.84,1.45-11.79,1.93-23.08,2.84-44.52-1.74-65.27-12.45-18.65-9.63-33.7-23.7-49.02-37.29-8.8-7.8-14.92-18.61-22.29-28.03-4.3-5.49-9-10.71-12.96-16.43-4.3-6.22-8.59-12.6-11.76-19.43-6.57-14.14-13.8-28.22-18.18-43.08-6.22-21.12-7.97-43.05-4.62-65.11.45-2.96.86-5.96.86-8.93-.02-25.62,6.9-49.75,14.31-74.03,6.36-20.85,15.72-40.23,24.98-59.68,7.12-14.96,16.77-28.73,23.86-43.71,4.5-9.51,11.89-17.03,15.87-26.92,2.63-6.53,8.89-11.49,12.88-17.59,6.36-9.72,11.63-20.19,18.35-29.63,9.59-13.48,20.1-26.32,30.18-39.46,7.63-9.96,15.11-20.05,22.84-29.94,2.44-3.12,5.45-5.8,8.24-8.63,1.16-1.18,2.96-2.03,3.58-3.42,7.12-15.94,20.67-26.51,32.33-38.55,13.17-13.59,27.06-26.49,40.71-39.62,12.45-11.98,24.59-24.32,37.59-35.66,9.94-8.67,21.06-15.99,31.59-23.99,6.82-5.18,13.54-10.48,20.28-15.76.78-.61,1.3-1.58,2.12-2.1,21.9-13.9,43.84-27.5,71.08-28.29,10.76-.31,19.98,3.38,27.43,10.05,7.88,7.06,10.63,17.36,11.74,27.77,2.43,22.71-2.69,44.38-9.81,65.64-4.64,13.86-9.34,27.78-15.38,41.05-5.19,11.39-12.3,21.9-18.61,32.78-1.17,2.01-2.57,3.88-3.8,5.86-11,17.8-21.88,35.68-33.02,53.39-4.76,7.57-10.19,14.71-15.02,22.23-1.35,2.09-2.19,4.83-2.32,7.32-.25,4.63-.07,9.33.37,13.96,4.03,42.16,4.93,84.34,2.19,126.64-1.22,18.92-1.03,37.93-1.96,56.87-.42,8.6-2.06,17.15-3.06,25.73-.45,3.86-.66,7.74-1.11,13.23,7.63-4.66,13.16-8.85,17.07-15.26,2.36-3.86,5.49-7.35,8.72-10.56,15.98-15.86,31.86-31.83,48.27-47.24,10.1-9.48,20.99-18.15,31.76-26.89,4.61-3.75,9.78-6.83,14.78-10.09,1.92-1.25,3.99-2.41,6.15-3.15,8.5-2.88,14.21-.43,15.49,8.46,1.65,11.46,2.44,23.23,1.86,34.78-.66,13.24-3.19,26.39-4.95,39.57-4.36,32.65-8.34,65.32-8.21,98.35.04,8.98-.39,17.96-.28,26.94.14,10.85,5,19.97,12.18,27.56,3.8,4.02,9.53,3.15,13.97.38,11.47-7.16,24-13.07,31.66-25.09.7-1.1,1.68-2.14,2.76-2.87,9.16-6.18,16.85-13.89,24.02-22.25,11.22-13.07,23.07-25.62,34.01-38.92,8.62-10.49,17.18-20.82,27.43-29.91,12.16-10.79,22.66-23.46,34.95-34.08,13.04-11.26,26.61-22.24,41.29-31.15,12.62-7.66,27.18-11.65,41.38-1.97,2.42,1.65,4.73,3.78,6.36,6.19,8.61,12.67,16.49,25.57,19.97,40.95,6.29,27.88,13.74,55.5,20.21,83.35,6.09,26.23,12.27,52.49,17.01,78.98,3.12,17.47,9.96,32.95,19.01,47.81,1.37,2.25,2.1,4.89,3.27,7.28,5.78,11.8,21.67,12.51,30.39,2.64,14.43-16.32,20.81-36.04,26.65-56.24,7.67-26.5,15.83-52.86,23.15-79.45,3.61-13.13,5.71-26.67,8.69-39.98,2.1-9.39,4.84-18.64,6.74-28.06,2.8-13.92,5.3-27.9,7.58-41.92,2.33-14.39,4.28-28.84,6.31-43.27,4.72-33.57,9.53-67.14,14.02-100.74,1.8-13.47,3.7-27.02,4.05-40.58.44-16.94-.78-33.91-1.09-50.87-.54-29.27-1.27-58.55-1.29-87.82-.01-18.97.9-37.95,1.76-56.91.47-10.42-1.24-21.33,5.76-30.67,1.01-1.34.41-3.89.57-5.87.19-2.32-.43-5.2.72-6.87,7.59-11.03,4.51-24.62,9.15-36.4,2.06-5.22,3.36-10.49,6.86-15.21,3.53-4.75,5.75-10.48,8.66-15.71,1.28-2.3,2.61-4.66,4.37-6.59,3.28-3.61,7.74-3.82,12.05-2.69,4.42,1.16,6.47,4.86,6.44,9.11-.05,7.29-.02,14.69-1.19,21.85-4.25,25.9-9.1,51.71-13.5,77.58-3.57,20.99-7.45,41.96-10.05,63.08-2.6,21.13-3.77,42.43-5.62,63.65-1.76,20.19-4.01,40.36-5.2,60.58-.68,11.58.09,23.26.64,34.88.33,6.96,1.32,13.91,2.34,20.82,2.61,17.75,5.35,35.49,8.16,53.22,1.71,10.82,3.43,21.65,5.53,32.4,5.22,26.73,10.36,53.48,16.13,80.09,4.08,18.81,8.36,37.64,13.93,56.05,6.64,21.93,13.9,43.77,22.6,64.95,4.31,10.49,12.14,19.65,18.99,28.95,3.7,5.02,6.73,17.54,3.28,22.26-1.39,1.89-5.06,3.3-7.47,3.02-5.84-.68-10.26-4.2-13.63-9.17-9.76-14.41-18.1-29.51-22.82-46.37-4.21-15.04-8.24-30.13-12.43-45.17-.89-3.19-1.56-6.7-3.4-9.33-5.94-8.49-7.84-18.19-9.78-28.03-5.67-28.69-11.86-57.29-17.29-86.02-4.51-23.86-8.19-47.87-12.31-71.8-.61-3.55-1.61-7.03-2.43-10.54l-1.95.17Zm-613.71-109.16c.66.11,1.32.22,1.98.33,7.92-13.02,15.77-26.09,23.77-39.06,14.07-22.8,30.15-44.42,39.73-69.79,5.28-13.98,11.97-27.51,16.27-41.77,4.92-16.31,6.44-33.37,4.23-50.43-1.26-9.75-6.4-17.21-16.61-18.71-7.75-1.14-15.91-1.49-23.63-.42-15.5,2.14-28.17,11.39-41.14,19.21-9.59,5.79-18.05,13.46-26.93,20.41-12.79,10-25.26,20.43-38.31,30.09-21.22,15.7-36.9,37.27-57.59,53.52-4.6,3.61-7.77,9-11.82,13.36-9.5,10.23-19.71,19.86-28.57,30.6-13.7,16.62-26.63,33.88-39.67,51.03-10.24,13.46-20.55,26.89-30.1,40.83-12,17.52-23.6,35.34-34.74,53.41-11.62,18.84-22.87,37.93-33.55,57.31-6.38,11.57-11.41,23.9-16.92,35.94-2.62,5.72-5.57,11.41-7.29,17.42-4.36,15.28-8.38,30.68-12.05,46.15-5.37,22.61-3.84,45.59-3.77,68.59.07,25.76,9.37,48.45,21.98,69.5,11.39,19.01,24.9,37.17,39.9,53.48,12.43,13.52,28.4,23.79,42.8,35.5.25.21.58.34.88.48,11.05,5.18,21.84,10.21,34.3,12.52,10.23,1.89,19.95,4.39,30.31,2.5,5.56-1.01,11.07-2.33,16.65-3.18,15.1-2.3,27.46-10.57,38.68-19.76,12.82-10.49,23.5-23.42,31.66-38.04,8.92-15.96,17.58-32.07,26.19-48.2,4.35-8.16,8.88-16.3,12.35-24.85,3.95-9.76,6.86-19.95,10.05-30,.3-.94-.58-2.26-1.27-4.64-10.45,10.75-20.99,19.98-29.55,30.78-15.17,19.14-32.15,36.47-50.2,52.69-15.48,13.92-31.04,28.66-53.94,29.43-.62.02-1.2.57-1.83.77-8.42,2.65-15.67.26-19.36-7.29-3.64-7.44-6.45-15.11-6.28-23.85.41-21.32,1.81-42.19,8.93-62.78,9.46-27.33,17.52-55.11,31.45-80.66,3.97-7.28,8.32-14.36,12.16-21.7,4.91-9.4,9.4-19.01,14.2-28.46,2.55-5.02,5.43-9.88,8.09-14.85,4.23-7.88,7.45-16.51,12.78-23.55,20-26.41,32.41-57.31,51.02-84.52,11.07-16.18,20.78-33.31,32.1-49.3,5.75-8.12,9.1-16.19,7.81-25.93-1.31-9.89-2.85-19.76-4.61-29.58-4.5-25.02-10.97-49.29-27.1-69.85-3.19-4.07-6.76-7.06-13.05-8.6-1.02,4.19-2.01,7.91-2.8,11.67-.62,2.93-.63,6.53-4.85,6.16-3.89-.34-4.63-3.91-4.4-6.79.65-8.22,1.66-16.42,2.93-24.56,1.03-6.56,5.38-9.56,11.79-9.47,4.36,4.23,8.76,8.26,12.87,12.57,4.11,4.31,8.12,8.76,11.83,13.41,14.54,18.23,19.69,40.43,25.77,62.16,2.65,9.46,4.36,19.18,6.49,28.79Zm-176.88,420.83c15.21,2.17,26.83-2.38,37.26-9.87,8.35-5.99,15.69-13.38,23.92-19.56,17.31-12.98,31.32-29.23,45.72-45.11,14.03-15.47,28-30.97,41.94-46.52,5.23-5.84,8.48-12.52,9.17-20.54.7-8.25,2.02-16.46,3.17-24.67.83-5.91,2.28-11.77,2.68-17.7,1.55-23.54,3.57-47.09,3.96-70.66.53-32.27-.2-64.57-.57-96.85-.04-3.42-1.27-6.83-1.97-10.35-6.39.72-8.93,4.24-11.5,8.36-16.87,27.05-33.96,53.97-50.97,80.94-6.03,9.55-12.62,18.8-17.93,28.75-10.63,19.93-20.39,40.32-30.82,60.37-7.95,15.28-16.4,30.3-24.52,45.49-1.4,2.61-2.44,5.45-3.4,8.26-4.51,13.18-8.18,26.72-13.57,39.53-8.91,21.18-13.7,43.09-14.17,65.93-.16,7.87,1.01,15.77,1.62,24.21ZM975.02,151.76c1.85-7.68,3.76-15.35,5.51-23.05.66-2.9,1-5.88,1.4-8.84,1.58-11.87,1.93-24.07,5.04-35.52,3.08-11.35,2.28-23,5.01-34.25.46-1.91-.2-4.09-.5-8.27-14.73,36.96-17.83,73.28-16.46,109.93Z"/>
      <path class="cls-1" d="m1132.32,656.17c.19-6.49,5.3-12.34,10.68-12.2,5.79.15,12.69,8.33,12.41,14.72-.2,4.46-7.42,9.46-13.5,9.33-5.27-.11-9.77-5.67-9.59-11.84Z"/>
    </g>
  </g>
</svg>